<?xml version="1.0" encoding="utf-8"?>
<!-- Generator: Adobe Illustrator 22.0.1, SVG Export Plug-In . SVG Version: 6.00 Build 0)  -->
<svg version="1.1" id="圖層_1" xmlns="http://www.w3.org/2000/svg" xmlns:xlink="http://www.w3.org/1999/xlink" x="0px" y="0px"
	 viewBox="0 0 1140.6 182.9" style="enable-background:new 0 0 1140.6 182.9;" xml:space="preserve">
<style type="text/css">
	.st0{fill:#FFFFFF;}
	.st1{fill:#5DBFB0;}
	.st2{fill:#E85C69;}
	.st3{fill:#ACDCE5;}
	.st4{fill:#F5C627;}
	.st5{fill:#1E95D4;}
	.st6{fill:#E95D65;}
	.st7{clip-path:url(#SVGID_2_);}
	.st8{fill:#F5CA6C;}
	.st9{fill:#E44767;}
	.st10{fill:#CB2E4C;}
	.st11{fill:#BDC83B;}
	.st12{fill:#A6B722;}
	.st13{fill:#23A5B0;}
	.st14{fill:#1896A0;}
</style>
<g>
	<path class="st0" d="M162.1,0.8C131.2,58.5,89.2,81.7,58.6,90.9c-35.1,10.6-63.1,5.8-63.4,5.7L-5,97.5c0.3,0.1,28.5,5,63.8-5.7
		c13.2-4,25.7-9.6,37.5-16.9c6.7-4.1,13.1-8.7,19.2-13.9C134,45.6,150,25.4,163,1.1C162.7,1,162.4,0.9,162.1,0.8"/>
	<polygon class="st1" points="20.6,120.8 33.1,96.3 5.6,97.7 20.6,120.8 33.1,96.3 5.6,97.7 	"/>
	<polygon class="st2" points="57.2,115.3 64.7,88.9 38,95.7 57.2,115.3 64.7,88.9 38,95.7 	"/>
	<polygon class="st3" points="90.9,103.1 92.9,75.7 68.2,87.6 90.9,103.1 92.9,75.7 68.2,87.6 	"/>
	<polygon class="st4" points="120.6,85.6 117.7,58.3 95.5,74.5 120.6,85.6 117.7,58.3 95.5,74.5 	"/>
	<polygon class="st3" points="146.5,62.2 139,35.8 119.9,55.5 146.5,62.2 139,35.8 119.9,55.5 	"/>
	<polygon class="st1" points="169.7,33 157.8,8.3 142.3,31 169.7,33 157.8,8.3 142.3,31 	"/>
</g>
<g>
	<path class="st0" d="M331.1,14.2c-51.2,40.7-99,45.4-130.7,41.8c-36.4-4.1-60.3-19.7-60.5-19.9l-0.5,0.8c0.2,0.2,24.2,15.9,60.9,20
		c13.7,1.6,27.5,1.3,41.1-0.7c7.8-1.1,15.5-2.8,23.1-5.1c23.2-6.9,45.8-19.1,67.4-36.3C331.6,14.7,331.3,14.5,331.1,14.2"/>
	<polygon class="st1" points="153.6,68.3 174.8,50.8 149,41.2 153.6,68.3 174.8,50.8 149,41.2 	"/>
	<polygon class="st2" points="189.5,77.9 206.8,56.5 179.6,52.2 189.5,77.9 206.8,56.5 179.6,52.2 	"/>
	<polygon class="st3" points="225.2,79.9 238,55.6 210.5,56.7 225.2,79.9 238,55.6 210.5,56.7 	"/>
	<polygon class="st4" points="259.4,75.7 267.6,49.4 240.8,55.5 259.4,75.7 267.6,49.4 240.8,55.5 	"/>
	<polygon class="st3" points="292.5,64.5 296,37.2 270.6,47.8 292.5,64.5 296,37.2 270.6,47.8 	"/>
	<polygon class="st1" points="325.3,46.9 324.2,19.4 301,34.1 325.3,46.9 324.2,19.4 301,34.1 	"/>
</g>
<g>
	<path class="st0" d="M811.3,14.1c51.2,40.7,99,45.4,130.7,41.8c36.4-4.1,60.3-19.7,60.5-19.9l0.5,0.8c-0.2,0.2-24.2,15.9-60.9,20
		c-13.7,1.6-27.5,1.3-41.1-0.7c-7.8-1.1-15.5-2.8-23.1-5.1c-23.2-6.9-45.8-19.1-67.4-36.3C810.8,14.6,811,14.4,811.3,14.1"/>
	<polygon class="st1" points="988.7,68.2 967.5,50.7 993.3,41.1 988.7,68.2 967.5,50.7 993.3,41.1 	"/>
	<polygon class="st2" points="952.9,77.8 935.6,56.4 962.7,52.1 952.9,77.8 935.6,56.4 962.7,52.1 	"/>
	<polygon class="st3" points="917.2,79.8 904.4,55.5 931.8,56.6 917.2,79.8 904.4,55.5 931.8,56.6 	"/>
	<polygon class="st4" points="882.9,75.6 874.8,49.3 901.6,55.4 882.9,75.6 874.8,49.3 901.6,55.4 	"/>
	<polygon class="st3" points="849.9,64.4 846.3,37.1 871.7,47.7 849.9,64.4 846.3,37.1 871.7,47.7 	"/>
	<polygon class="st1" points="817,46.8 818.2,19.3 841.4,34 817,46.8 818.2,19.3 841.4,34 	"/>
</g>
<g>
	<path class="st0" d="M980.6,0.9c30.9,57.7,72.9,80.9,103.5,90.1c35.1,10.6,63.1,5.8,63.4,5.7l0.2,0.9c-0.3,0.1-28.5,5-63.8-5.7
		c-13.2-4-25.7-9.6-37.5-16.9c-6.7-4.1-13.1-8.7-19.2-13.9c-18.6-15.5-34.5-35.7-47.5-60C980,1.1,980.3,1.1,980.6,0.9"/>
	<polygon class="st1" points="1122.1,120.9 1109.6,96.4 1137,97.9 1122.1,120.9 1109.6,96.4 1137,97.9 	"/>
	<polygon class="st2" points="1085.4,115.5 1078,89 1104.6,95.8 1085.4,115.5 1078,89 1104.6,95.8 	"/>
	<polygon class="st3" points="1051.8,103.2 1049.7,75.8 1074.5,87.7 1051.8,103.2 1049.7,75.8 1074.5,87.7 	"/>
	<polygon class="st4" points="1022,85.8 1025,58.4 1047.2,74.6 1022,85.8 1025,58.4 1047.2,74.6 	"/>
	<polygon class="st3" points="996.1,62.4 1003.7,36 1022.8,55.7 996.1,62.4 1003.7,36 1022.8,55.7 	"/>
	<polygon class="st1" points="973,33.2 984.9,8.4 1000.4,31.1 973,33.2 984.9,8.4 1000.4,31.1 	"/>
</g>
<g>
	<g>
		<path class="st5" d="M884.3,125.7c-1.4-3.6,13.1-2.8,11.6-2.8C891.4,123.1,885.2,128.2,884.3,125.7"/>
		<path class="st5" d="M872.6,123.3c-1.4-3.6,13.1-2.8,11.6-2.8C879.7,120.6,873.5,125.7,872.6,123.3"/>
		<path class="st5" d="M866.3,130.4c-1.4-3.6,13.1-2.8,11.6-2.8C873.3,127.8,867.2,132.9,866.3,130.4"/>
		<path class="st5" d="M854.4,128.6c-1.4-3.6,13.1-2.8,11.6-2.8C861.5,126,855.4,131.1,854.4,128.6"/>
		<path class="st5" d="M884.6,115.8c1-3.8,12.4,4.2,11.1,3.4C892,117.1,884,118.4,884.6,115.8"/>
		<path class="st5" d="M867.1,110.9c1-3.8,12.4,4.2,11.1,3.4C874.5,112.1,866.5,113.4,867.1,110.9"/>
		<path class="st5" d="M857.5,118.2c-0.6-3.8,13.4-0.3,11.9-0.5C864.9,116.9,857.8,120.8,857.5,118.2"/>
		<path class="st5" d="M883.7,108c1.6-3.7,11.4,5.9,10.3,5C890.7,110.4,882.6,110.5,883.7,108"/>
		<path class="st5" d="M867.4,100.6c1.6-3.7,11.4,5.9,10.3,5C874.4,102.9,866.3,103,867.4,100.6"/>
		<path class="st5" d="M857.5,101.9c1.6-3.7,11.4,5.9,10.3,5C864.5,104.2,856.4,104.4,857.5,101.9"/>
		<path class="st5" d="M886.8,97.6c3.3-2.6,6.7,10.4,6.2,9.1C891.5,102.8,884.6,99.3,886.8,97.6"/>
		<path class="st5" d="M877.2,91.8c3.3-2.6,6.7,10.4,6.2,9.1C882,97,875,93.6,877.2,91.8"/>
		<path class="st5" d="M867.2,91.4c2.1-3.5,10.4,7.4,9.4,6.3C873.8,94.6,865.8,93.7,867.2,91.4"/>
		<path class="st5" d="M883.8,83.5c3.7-2.1,4.8,11.3,4.5,10C887.5,89.4,881.3,84.9,883.8,83.5"/>
		<path class="st5" d="M911.2,119.3c-0.4-3.9-13,3.4-11.6,2.8C903.7,120.1,911.5,121.9,911.2,119.3"/>
		<path class="st5" d="M920.5,111.8c-0.4-3.9-13,3.4-11.6,2.8C913,112.7,920.8,114.4,920.5,111.8"/>
		<path class="st5" d="M929.4,115.3c-0.4-3.9-13,3.4-11.6,2.8C921.9,116.2,929.6,118,929.4,115.3"/>
		<path class="st5" d="M939.1,108.4c-0.4-3.9-13,3.4-11.6,2.8C931.6,109.2,939.4,111,939.1,108.4"/>
		<path class="st5" d="M905.6,109.6c-3.4-2.2-6.3,11.1-5.9,9.7C901,115.3,907.9,111.1,905.6,109.6"/>
		<path class="st5" d="M919.8,98.3c-2.6-3-9.2,9.3-8.4,8.1C913.8,102.7,921.5,100.3,919.8,98.3"/>
		<path class="st5" d="M931.7,100.5c-1.2-3.7-12,5.8-10.9,4.9C924.5,102.7,932.5,102.9,931.7,100.5"/>
		<path class="st5" d="M907,98.8c-3.1-2.5-7.5,10.5-7,9.2C901.8,104,909.1,100.5,907,98.8"/>
		<path class="st5" d="M914.8,89.2c-3.1-2.5-7.5,10.5-6.9,9.2C909.7,94.5,916.9,90.9,914.8,89.2"/>
		<path class="st5" d="M924.3,85.9c-3.1-2.5-7.5,10.5-6.9,9.2C919.2,91.2,926.4,87.7,924.3,85.9"/>
		<path class="st5" d="M897.1,100.6c-4.1-0.8-1.2,12.3-1.4,10.9C895.2,107.4,899.9,101.2,897.1,100.6"/>
		<path class="st5" d="M902.1,85.9c-4.1-0.8-1.2,12.3-1.4,10.9C900.3,92.7,904.9,86.4,902.1,85.9"/>
		<path class="st5" d="M910.9,81c-3.5-2.1-5.9,11.3-5.5,9.9C906.5,86.8,913.2,82.4,910.9,81"/>
		<path class="st5" d="M894.7,82c-4.2-0.2,0.9,12.2,0.5,10.9C894,89,897.5,82.2,894.7,82"/>
		<path class="st5" d="M896.9,141.9c-4.2-0.3,3.7-12,3-10.7C897.8,134.9,899.7,142.1,896.9,141.9"/>
		<path class="st5" d="M888.7,150.4c-4.2-0.3,3.7-12,3-10.7C889.7,143.5,891.6,150.7,888.7,150.4"/>
		<path class="st5" d="M892.6,158.6c-4.2-0.3,3.7-12,3-10.7C893.5,151.7,895.4,158.8,892.6,158.6"/>
		<path class="st5" d="M885,167.6c-4.2-0.3,3.7-12,3-10.7C885.9,160.6,887.9,167.8,885,167.6"/>
		<path class="st5" d="M874,149.7c-3.2-2.4,10.1-8.4,8.8-7.7C878.9,144.2,876.2,151.3,874,149.7"/>
		<path class="st5" d="M876.4,160.7c-4-1.1,6.3-11.1,5.4-10C878.8,154.1,879.1,161.5,876.4,160.7"/>
		<path class="st5" d="M874.6,138c-2.8-2.9,11.4-6.9,10-6.4C880.3,133.2,876.4,139.9,874.6,138"/>
		<path class="st5" d="M864.2,145.2c-2.8-2.9,11.4-6.9,10-6.4C869.9,140.4,866.1,147.1,864.2,145.2"/>
		<path class="st5" d="M860.6,153.9c-2.8-2.9,11.4-6.9,9.9-6.4C866.3,149.2,862.5,155.9,860.6,153.9"/>
		<path class="st5" d="M886.4,136c-3.3-2.3,9.8-8.7,8.5-8C891,130.4,888.7,137.6,886.4,136"/>
		<path class="st5" d="M897.6,165.2c-4.2-0.5,4.2-11.8,3.4-10.6C898.8,158.3,900.5,165.5,897.6,165.2"/>
		<path class="st5" d="M855.2,141.5c-2.3-3.2,12.2-5.4,10.8-5.1C861.5,137.5,856.8,143.7,855.2,141.5"/>
		<path class="st5" d="M905.7,149.7c4.2-0.6-3.4-11.8-2.7-10.5C905,142.9,902.9,150.1,905.7,149.7"/>
		<path class="st5" d="M914.9,143.5c3.6-2.2-8.7-9-7.5-8.2C911,137.8,912.5,145,914.9,143.5"/>
		<path class="st5" d="M915.2,152.5c3.6-2.2-8.7-9-7.5-8.2C911.3,146.8,912.8,154,915.2,152.5"/>
		<path class="st5" d="M926,157.1c3.6-2.2-8.7-9-7.5-8.2C922,151.4,923.6,158.6,926,157.1"/>
		<path class="st5" d="M927.7,136.2c1.8-3.6-12.8-2.9-11.3-2.9C920.9,133.5,926.5,138.7,927.7,136.2"/>
		<path class="st5" d="M930.6,147.1c3.1-2.8-10.6-7-9.3-6.5C925.4,142.3,928.5,149,930.6,147.1"/>
		<path class="st5" d="M921.9,126c1.2-3.8-13.3-1-11.8-1.2C914.7,124.3,921.1,128.6,921.9,126"/>
		<path class="st5" d="M934.4,127.8c1.2-3.8-13.3-1-11.8-1.2C927.2,126.1,933.6,130.3,934.4,127.8"/>
		<path class="st5" d="M941.6,133.9c1.2-3.8-13.3-1-11.8-1.2C934.4,132.3,940.8,136.5,941.6,133.9"/>
		<path class="st5" d="M910.6,129.8c2.5-3.3-11.9-5.2-10.4-4.9C904.5,125.9,908.9,132,910.6,129.8"/>
		<path class="st5" d="M913.7,160.7c3.5-2.3-9.1-8.7-7.9-7.9C909.5,155.1,911.3,162.3,913.7,160.7"/>
		<path class="st5" d="M940.8,120.4c0.6-3.9-13.4,0.7-11.9,0.3C933.3,119.7,940.4,123.1,940.8,120.4"/>
	</g>
	<g>
		<path class="st6" d="M958.1,128.3c-1.8-4.6,16.8-3.6,14.9-3.6C967.2,124.9,959.3,131.4,958.1,128.3"/>
		<path class="st6" d="M943.2,125.2c-1.8-4.6,16.8-3.6,14.9-3.6C952.2,121.8,944.4,128.3,943.2,125.2"/>
		<path class="st6" d="M935.1,134.3c-1.8-4.6,16.8-3.6,14.9-3.6C944.1,130.9,936.3,137.4,935.1,134.3"/>
		<path class="st6" d="M920,132c-1.8-4.6,16.8-3.6,14.9-3.6C929,128.6,921.2,135.2,920,132"/>
		<path class="st6" d="M958.5,115.7c1.2-4.9,15.8,5.3,14.2,4.4C967.9,117.3,957.7,119,958.5,115.7"/>
		<path class="st6" d="M936.2,109.3c1.2-4.9,15.8,5.3,14.2,4.4C945.6,110.9,935.4,112.6,936.2,109.3"/>
		<path class="st6" d="M923.8,118.7c-0.7-4.9,17.1-0.3,15.2-0.7C933.4,117.1,924.3,122,923.8,118.7"/>
		<path class="st6" d="M957.4,105.7c2.1-4.7,14.6,7.6,13.2,6.4C966.3,108.7,956,108.9,957.4,105.7"/>
		<path class="st6" d="M936.6,96.1c2.1-4.7,14.6,7.6,13.2,6.4C945.5,99.1,935.2,99.3,936.6,96.1"/>
		<path class="st6" d="M923.9,97.9c2.1-4.7,14.6,7.6,13.2,6.4C932.8,100.8,922.5,101.1,923.9,97.9"/>
		<path class="st6" d="M961.3,92.3c4.2-3.3,8.5,13.3,7.9,11.6C967.4,99,958.5,94.5,961.3,92.3"/>
		<path class="st6" d="M949.1,85c4.2-3.3,8.5,13.3,7.9,11.6C955.2,91.6,946.3,87.2,949.1,85"/>
		<path class="st6" d="M936.3,84.4c2.7-4.4,13.2,9.4,12,8.1C944.7,88.5,934.5,87.4,936.3,84.4"/>
		<path class="st6" d="M957.4,74.3c4.7-2.7,6.1,14.4,5.8,12.7C962.3,81.8,954.3,76.1,957.4,74.3"/>
		<path class="st6" d="M992.5,120.1c-0.5-5-16.6,4.4-14.9,3.6C982.9,121.2,992.8,123.4,992.5,120.1"/>
		<path class="st6" d="M1004.4,110.5c-0.5-4.9-16.6,4.4-14.9,3.6C994.8,111.6,1004.7,113.9,1004.4,110.5"/>
		<path class="st6" d="M1015.8,115c-0.5-5-16.6,4.4-14.9,3.6C1006.2,116.1,1016.1,118.4,1015.8,115"/>
		<path class="st6" d="M1028.2,106.2c-0.5-5-16.6,4.4-14.9,3.6C1018.6,107.2,1028.5,109.5,1028.2,106.2"/>
		<path class="st6" d="M985.4,107.7c-4.3-2.8-8.1,14.1-7.5,12.4C979.5,114.9,988.3,109.6,985.4,107.7"/>
		<path class="st6" d="M1003.4,93.2c-3.3-3.8-11.7,11.9-10.7,10.4C995.8,98.9,1005.7,95.8,1003.4,93.2"/>
		<path class="st6" d="M1018.7,96c-1.6-4.7-15.4,7.4-13.9,6.3C1009.5,98.9,1019.8,99.2,1018.7,96"/>
		<path class="st6" d="M987.1,93.9c-4-3.3-9.6,13.4-8.9,11.7C980.5,100.5,989.8,96,987.1,93.9"/>
		<path class="st6" d="M997.2,81.7c-4-3.3-9.6,13.4-8.9,11.7C990.5,88.3,999.8,83.9,997.2,81.7"/>
		<path class="st6" d="M1009.3,77.5c-4-3.3-9.6,13.4-8.9,11.7C1002.7,84.1,1012,79.7,1009.3,77.5"/>
		<path class="st6" d="M974.5,96.2c-5.3-1-1.6,15.7-1.8,14C972,104.9,978,96.9,974.5,96.2"/>
		<path class="st6" d="M980.9,77.4c-5.3-1-1.6,15.7-1.8,14C978.5,86,984.5,78.1,980.9,77.4"/>
		<path class="st6" d="M992.1,71.1c-4.4-2.7-7.6,14.4-7.1,12.7C986.5,78.5,995.1,72.9,992.1,71.1"/>
		<path class="st6" d="M971.4,72.5c-5.4-0.2,1.1,15.6,0.6,14C970.5,81.3,975.1,72.6,971.4,72.5"/>
		<path class="st6" d="M974.2,148.9c-5.4-0.4,4.8-15.3,3.9-13.7C975.4,140.1,977.8,149.2,974.2,148.9"/>
		<path class="st6" d="M963.8,159.9c-5.4-0.4,4.8-15.3,3.9-13.7C965,151,967.4,160.2,963.8,159.9"/>
		<path class="st6" d="M968.7,170.3c-5.4-0.4,4.8-15.3,3.9-13.7C969.9,161.5,972.3,170.6,968.7,170.3"/>
		<path class="st6" d="M959.1,181.8c-5.4-0.4,4.8-15.3,3.9-13.7C960.2,172.9,962.7,182,959.1,181.8"/>
		<path class="st6" d="M945,159c-4.1-3.1,12.9-10.8,11.3-9.8C951.2,151.9,947.8,161,945,159"/>
		<path class="st6" d="M948,173c-5.1-1.4,8.1-14.2,6.8-12.8C951.2,164.5,951.5,174,948,173"/>
		<path class="st6" d="M945.7,143.9c-3.5-3.6,14.5-8.8,12.7-8.2C953,137.8,948.1,146.4,945.7,143.9"/>
		<path class="st6" d="M932.4,153.2c-3.5-3.6,14.5-8.9,12.7-8.2C939.7,147.1,934.8,155.6,932.4,153.2"/>
		<path class="st6" d="M927.9,164.4c-3.5-3.6,14.5-8.9,12.7-8.2C935.1,158.3,930.3,166.8,927.9,164.4"/>
		<path class="st6" d="M960.8,141.5c-4.3-2.9,12.5-11.2,10.9-10.2C966.7,134.3,963.7,143.5,960.8,141.5"/>
		<path class="st6" d="M975.2,178.7c-5.4-0.6,5.3-15.1,4.4-13.6C976.7,169.9,978.8,179.1,975.2,178.7"/>
		<path class="st6" d="M921,148.5c-2.9-4.1,15.6-7,13.8-6.5C929,143.3,923,151.3,921,148.5"/>
		<path class="st6" d="M985.5,159c5.4-0.7-4.3-15-3.5-13.5C984.6,150.2,981.9,159.5,985.5,159"/>
		<path class="st6" d="M997.3,151.1c4.6-2.8-11.1-11.5-9.6-10.5C992.2,143.7,994.2,153,997.3,151.1"/>
		<path class="st6" d="M997.6,162.6c4.6-2.8-11.2-11.5-9.6-10.5C992.6,155.2,994.5,164.5,997.6,162.6"/>
		<path class="st6" d="M1011.4,168.4c4.6-2.8-11.1-11.5-9.6-10.5C1006.4,161.1,1008.3,170.3,1011.4,168.4"/>
		<path class="st6" d="M1013.6,141.7c2.3-4.6-16.4-3.8-14.5-3.7C1004.9,138.3,1012.1,144.8,1013.6,141.7"/>
		<path class="st6" d="M1017.3,155.7c3.9-3.6-13.6-9-11.9-8.3C1010.7,149.5,1014.7,158.1,1017.3,155.7"/>
		<path class="st6" d="M1006.2,128.7c1.5-4.9-16.9-1.3-15-1.5C997,126.5,1005.2,131.9,1006.2,128.7"/>
		<path class="st6" d="M1022.2,130.9c1.5-4.8-17-1.3-15-1.5C1013,128.7,1021.2,134.2,1022.2,130.9"/>
		<path class="st6" d="M1031.3,138.8c1.5-4.8-16.9-1.3-15-1.5C1022.1,136.6,1030.3,142.1,1031.3,138.8"/>
		<path class="st6" d="M991.7,133.6c3.2-4.2-15.2-6.6-13.3-6.2C984,128.6,989.6,136.4,991.7,133.6"/>
		<path class="st6" d="M995.7,173c4.5-3-11.6-11.1-10-10.1C990.3,165.9,992.6,175,995.7,173"/>
		<path class="st6" d="M1030.3,121.5c0.8-5-17.1,0.9-15.2,0.4C1020.8,120.6,1029.8,124.9,1030.3,121.5"/>
	</g>
	<g>
		<path class="st6" d="M832.1,109.6c-1-2.7,9.6-2.1,8.5-2C837.3,107.7,832.8,111.4,832.1,109.6"/>
		<path class="st6" d="M823.5,107.8c-1-2.7,9.6-2.1,8.5-2C828.7,105.9,824.2,109.6,823.5,107.8"/>
		<path class="st6" d="M818.9,113.1c-1-2.6,9.6-2.1,8.5-2C824.1,111.1,819.6,114.9,818.9,113.1"/>
		<path class="st6" d="M810.3,111.8c-1-2.7,9.6-2.1,8.5-2C815.4,109.8,811,113.6,810.3,111.8"/>
		<path class="st6" d="M832.4,102.4c0.7-2.8,9.1,3,8.2,2.5C837.7,103.3,831.9,104.3,832.4,102.4"/>
		<path class="st6" d="M819.6,98.7c0.7-2.8,9.1,3,8.2,2.5C824.9,99.7,819.1,100.6,819.6,98.7"/>
		<path class="st6" d="M812.5,104.1c-0.4-2.8,9.8-0.2,8.7-0.4C817.9,103.2,812.7,106,812.5,104.1"/>
		<path class="st6" d="M831.7,96.7c1.2-2.7,8.4,4.3,7.6,3.7C836.8,98.4,830.9,98.5,831.7,96.7"/>
		<path class="st6" d="M819.8,91.2c1.2-2.7,8.4,4.3,7.6,3.7C824.9,92.9,819,93,819.8,91.2"/>
		<path class="st6" d="M812.5,92.2c1.2-2.7,8.4,4.3,7.6,3.7C817.6,93.9,811.7,94,812.5,92.2"/>
		<path class="st6" d="M833.9,89c2.4-1.9,4.9,7.6,4.5,6.7C837.4,92.8,832.3,90.3,833.9,89"/>
		<path class="st6" d="M827,84.8c2.4-1.9,4.9,7.6,4.5,6.7C830.4,88.6,825.3,86.1,827,84.8"/>
		<path class="st6" d="M819.6,84.5c1.6-2.5,7.6,5.4,6.9,4.6C824.4,86.8,818.6,86.2,819.6,84.5"/>
		<path class="st6" d="M831.7,78.7c2.7-1.5,3.5,8.3,3.3,7.3C834.5,83,829.9,79.7,831.7,78.7"/>
		<path class="st6" d="M851.8,104.9c-0.3-2.8-9.5,2.5-8.5,2C846.3,105.5,852,106.8,851.8,104.9"/>
		<path class="st6" d="M858.7,99.4c-0.3-2.8-9.5,2.5-8.5,2C853.2,100.1,858.8,101.4,858.7,99.4"/>
		<path class="st6" d="M865.2,102c-0.3-2.8-9.5,2.5-8.5,2C859.7,102.6,865.3,103.9,865.2,102"/>
		<path class="st6" d="M872.3,96.9c-0.3-2.8-9.5,2.5-8.5,2C866.8,97.5,872.5,98.8,872.3,96.9"/>
		<path class="st6" d="M847.7,97.8c-2.5-1.6-4.6,8.1-4.3,7.1C844.4,102,849.4,98.9,847.7,97.8"/>
		<path class="st6" d="M858.1,89.5c-1.9-2.2-6.7,6.8-6.1,5.9C853.7,92.8,859.4,91,858.1,89.5"/>
		<path class="st6" d="M866.9,91.1c-0.9-2.7-8.8,4.3-7.9,3.6C861.6,92.8,867.5,92.9,866.9,91.1"/>
		<path class="st6" d="M848.7,89.9c-2.3-1.9-5.5,7.7-5.1,6.7C844.9,93.7,850.3,91.1,848.7,89.9"/>
		<path class="st6" d="M854.5,82.9c-2.3-1.9-5.5,7.7-5.1,6.7C850.7,86.7,856,84.1,854.5,82.9"/>
		<path class="st6" d="M861.5,80.5c-2.3-1.9-5.5,7.7-5.1,6.7C857.7,84.3,863,81.7,861.5,80.5"/>
		<path class="st6" d="M841.5,91.2c-3-0.6-0.9,9-1,8C840.1,96.2,843.5,91.6,841.5,91.2"/>
		<path class="st6" d="M845.2,80.4c-3-0.6-0.9,9-1,8C843.8,85.4,847.2,80.8,845.2,80.4"/>
		<path class="st6" d="M851.6,76.8c-2.5-1.5-4.3,8.2-4.1,7.3C848.4,81.1,853.3,77.9,851.6,76.8"/>
		<path class="st6" d="M839.7,77.6c-3.1-0.1,0.6,9,0.3,8C839.2,82.7,841.8,77.7,839.7,77.6"/>
		<path class="st6" d="M841.3,121.4c-3.1-0.2,2.7-8.8,2.2-7.8C842,116.4,843.4,121.6,841.3,121.4"/>
		<path class="st6" d="M835.4,127.7c-3.1-0.2,2.7-8.8,2.2-7.8C836,122.7,837.5,127.9,835.4,127.7"/>
		<path class="st6" d="M838.2,133.7c-3.1-0.2,2.7-8.8,2.2-7.8C838.8,128.6,840.3,133.9,838.2,133.7"/>
		<path class="st6" d="M832.7,140.3c-3.1-0.2,2.7-8.8,2.2-7.8C833.3,135.2,834.7,140.4,832.7,140.3"/>
		<path class="st6" d="M824.6,127.2c-2.4-1.8,7.4-6.2,6.5-5.6C828.1,123.2,826.2,128.4,824.6,127.2"/>
		<path class="st6" d="M826.3,135.3c-2.9-0.8,4.6-8.1,3.9-7.3C828.1,130.4,828.3,135.8,826.3,135.3"/>
		<path class="st6" d="M825,118.6c-2-2.1,8.3-5.1,7.3-4.7C829.2,115.1,826.4,120,825,118.6"/>
		<path class="st6" d="M817.4,123.9c-2-2.1,8.3-5.1,7.3-4.7C821.6,120.4,818.8,125.3,817.4,123.9"/>
		<path class="st6" d="M814.8,130.3c-2-2.1,8.3-5.1,7.3-4.7C818.9,126.8,816.2,131.7,814.8,130.3"/>
		<path class="st6" d="M833.7,117.2c-2.4-1.7,7.2-6.4,6.2-5.8C837.1,113,835.3,118.3,833.7,117.2"/>
		<path class="st6" d="M841.9,138.5c-3.1-0.3,3.1-8.7,2.5-7.8C842.8,133.5,844,138.8,841.9,138.5"/>
		<path class="st6" d="M810.8,121.2c-1.7-2.3,9-4,7.9-3.7C815.4,118.3,812,122.8,810.8,121.2"/>
		<path class="st6" d="M847.8,127.2c3.1-0.4-2.5-8.6-2-7.7C847.3,122.2,845.7,127.5,847.8,127.2"/>
		<path class="st6" d="M854.6,122.7c2.6-1.6-6.4-6.6-5.5-6C851.7,118.5,852.8,123.8,854.6,122.7"/>
		<path class="st6" d="M854.8,129.3c2.6-1.6-6.4-6.6-5.5-6C851.9,125.1,853,130.4,854.8,129.3"/>
		<path class="st6" d="M862.7,132.6c2.6-1.6-6.4-6.6-5.5-6C859.8,128.4,860.9,133.7,862.7,132.6"/>
		<path class="st6" d="M863.9,117.3c1.3-2.6-9.4-2.2-8.3-2.1C858.9,115.3,863,119.1,863.9,117.3"/>
		<path class="st6" d="M866,125.3c2.2-2.1-7.8-5.2-6.8-4.8C862.2,121.8,864.5,126.7,866,125.3"/>
		<path class="st6" d="M859.7,109.8c0.9-2.8-9.7-0.8-8.6-0.9C854.4,108.6,859.1,111.7,859.7,109.8"/>
		<path class="st6" d="M868.9,111.1c0.9-2.8-9.7-0.8-8.6-0.9C863.6,109.9,868.3,113,868.9,111.1"/>
		<path class="st6" d="M874.1,115.6c0.9-2.8-9.7-0.8-8.6-0.9C868.8,114.4,873.5,117.5,874.1,115.6"/>
		<path class="st6" d="M851.4,112.6c1.8-2.4-8.7-3.8-7.6-3.6C846.9,109.8,850.2,114.2,851.4,112.6"/>
		<path class="st6" d="M853.6,135.3c2.6-1.7-6.6-6.4-5.8-5.8C850.6,131.2,851.9,136.4,853.6,135.3"/>
		<path class="st6" d="M873.5,105.7c0.4-2.8-9.8,0.5-8.7,0.2C868.1,105.2,873.2,107.7,873.5,105.7"/>
	</g>
</g>
<g>
	<g>
		<path class="st5" d="M254.9,123.8c1.4-3.6-13.1-2.8-11.6-2.8C247.8,121.1,253.9,126.2,254.9,123.8"/>
		<path class="st5" d="M266.6,121.3c1.4-3.6-13.1-2.8-11.6-2.8C259.5,118.7,265.6,123.8,266.6,121.3"/>
		<path class="st5" d="M272.9,128.5c1.4-3.6-13.1-2.8-11.6-2.8C265.8,125.8,271.9,130.9,272.9,128.5"/>
		<path class="st5" d="M284.7,126.7c1.4-3.6-13.1-2.8-11.6-2.8C277.6,124,283.8,129.1,284.7,126.7"/>
		<path class="st5" d="M254.5,113.9c-1-3.8-12.4,4.2-11.1,3.4C247.2,115.2,255.2,116.5,254.5,113.9"/>
		<path class="st5" d="M272,108.9c-1-3.8-12.4,4.2-11.1,3.4C264.7,110.2,272.7,111.5,272,108.9"/>
		<path class="st5" d="M281.7,116.3c0.6-3.8-13.4-0.3-11.9-0.5C274.2,115,281.3,118.9,281.7,116.3"/>
		<path class="st5" d="M255.4,106.1c-1.6-3.7-11.4,5.9-10.3,5C248.4,108.4,256.5,108.6,255.4,106.1"/>
		<path class="st5" d="M271.7,98.6c-1.6-3.7-11.4,5.9-10.3,5C264.7,100.9,272.8,101.1,271.7,98.6"/>
		<path class="st5" d="M281.7,100c-1.6-3.7-11.4,5.9-10.3,5C274.7,102.3,282.8,102.5,281.7,100"/>
		<path class="st5" d="M252.4,95.6c-3.3-2.6-6.7,10.4-6.2,9.1C247.6,100.8,254.6,97.4,252.4,95.6"/>
		<path class="st5" d="M261.9,89.9c-3.3-2.6-6.7,10.4-6.2,9.1C257.2,95.1,264.2,91.6,261.9,89.9"/>
		<path class="st5" d="M271.9,89.4c-2.1-3.5-10.4,7.4-9.4,6.3C265.4,92.7,273.4,91.8,271.9,89.4"/>
		<path class="st5" d="M255.4,81.6c-3.7-2.1-4.8,11.3-4.5,10C251.6,87.4,257.9,83,255.4,81.6"/>
		<path class="st5" d="M228,117.4c0.4-3.9,13,3.4,11.6,2.8C235.5,118.2,227.7,120,228,117.4"/>
		<path class="st5" d="M218.6,109.9c0.4-3.9,13,3.4,11.6,2.8C226.1,110.7,218.4,112.5,218.6,109.9"/>
		<path class="st5" d="M209.8,113.4c0.4-3.9,13,3.4,11.6,2.8C217.3,114.2,209.5,116,209.8,113.4"/>
		<path class="st5" d="M200,106.5c0.4-3.9,13,3.4,11.6,2.8C207.5,107.3,199.8,109.1,200,106.5"/>
		<path class="st5" d="M233.6,107.6c3.4-2.2,6.3,11.1,5.9,9.7C238.1,113.3,231.3,109.1,233.6,107.6"/>
		<path class="st5" d="M219.4,96.3c2.6-3,9.2,9.3,8.4,8.1C225.4,100.8,217.6,98.3,219.4,96.3"/>
		<path class="st5" d="M207.4,98.5c1.2-3.7,12,5.8,10.9,4.9C214.7,100.8,206.6,101,207.4,98.5"/>
		<path class="st5" d="M232.2,96.8c3.1-2.5,7.5,10.5,7,9.2C237.4,102.1,230.1,98.5,232.2,96.8"/>
		<path class="st5" d="M224.3,87.3c3.1-2.5,7.5,10.5,6.9,9.2C229.5,92.5,222.2,89,224.3,87.3"/>
		<path class="st5" d="M214.8,84c3.1-2.5,7.5,10.5,6.9,9.2C220,89.2,212.7,85.7,214.8,84"/>
		<path class="st5" d="M242.1,98.7c4.1-0.8,1.2,12.3,1.4,10.9C244,105.5,239.3,99.2,242.1,98.7"/>
		<path class="st5" d="M237,83.9c4.1-0.8,1.2,12.3,1.4,10.9C238.9,90.7,234.2,84.5,237,83.9"/>
		<path class="st5" d="M228.3,79c3.5-2.1,5.9,11.3,5.5,9.9C232.7,84.8,226,80.4,228.3,79"/>
		<path class="st5" d="M244.5,80.1c4.2-0.2-0.9,12.2-0.5,10.9C245.2,87,241.6,80.2,244.5,80.1"/>
		<path class="st5" d="M242.3,139.9c4.2-0.3-3.7-12-3-10.7C241.4,133,239.4,140.1,242.3,139.9"/>
		<path class="st5" d="M250.4,148.5c4.2-0.3-3.7-12-3-10.7C249.5,141.6,247.6,148.7,250.4,148.5"/>
		<path class="st5" d="M246.6,156.7c4.2-0.3-3.7-12-3-10.7C245.7,149.7,243.7,156.9,246.6,156.7"/>
		<path class="st5" d="M254.1,165.6c4.2-0.3-3.7-12-3-10.7C253.2,158.7,251.3,165.8,254.1,165.6"/>
		<path class="st5" d="M265.1,147.8c3.2-2.4-10.1-8.4-8.8-7.7C260.3,142.3,262.9,149.4,265.1,147.8"/>
		<path class="st5" d="M262.8,158.8c4-1.1-6.3-11.1-5.4-10C260.3,152.1,260.1,159.6,262.8,158.8"/>
		<path class="st5" d="M264.6,136c2.8-2.9-11.4-6.9-10-6.4C258.9,131.2,262.7,138,264.6,136"/>
		<path class="st5" d="M275,143.3c2.8-2.9-11.4-6.9-10-6.4C269.3,138.5,273.1,145.2,275,143.3"/>
		<path class="st5" d="M278.5,152c2.8-2.9-11.4-6.9-9.9-6.4C272.9,147.2,276.7,153.9,278.5,152"/>
		<path class="st5" d="M252.8,134.1c3.3-2.3-9.8-8.7-8.5-8C248.1,128.5,250.5,135.6,252.8,134.1"/>
		<path class="st5" d="M241.5,163.3c4.2-0.5-4.2-11.8-3.4-10.6C240.3,156.4,238.7,163.6,241.5,163.3"/>
		<path class="st5" d="M283.9,139.6c2.3-3.2-12.2-5.4-10.8-5.1C277.6,135.6,282.4,141.7,283.9,139.6"/>
		<path class="st5" d="M233.4,147.8c-4.2-0.6,3.4-11.8,2.7-10.5C234.2,140.9,236.3,148.2,233.4,147.8"/>
		<path class="st5" d="M224.2,141.6c-3.6-2.2,8.7-9,7.5-8.2C228.2,135.8,226.7,143.1,224.2,141.6"/>
		<path class="st5" d="M224,150.6c-3.6-2.2,8.7-9,7.5-8.2C227.9,144.8,226.4,152.1,224,150.6"/>
		<path class="st5" d="M213.2,155.2c-3.6-2.2,8.7-9,7.5-8.2C217.1,149.4,215.6,156.7,213.2,155.2"/>
		<path class="st5" d="M211.4,134.3c-1.8-3.6,12.8-2.9,11.3-2.9C218.2,131.6,212.7,136.7,211.4,134.3"/>
		<path class="st5" d="M208.6,145.2c-3.1-2.8,10.6-7,9.3-6.5C213.8,140.4,210.6,147.1,208.6,145.2"/>
		<path class="st5" d="M217.2,124.1c-1.2-3.8,13.3-1,11.8-1.2C224.5,122.4,218,126.6,217.2,124.1"/>
		<path class="st5" d="M204.7,125.8c-1.2-3.8,13.3-1,11.8-1.2C211.9,124.1,205.5,128.4,204.7,125.8"/>
		<path class="st5" d="M197.6,132c-1.2-3.8,13.3-1,11.8-1.2C204.8,130.3,198.4,134.6,197.6,132"/>
		<path class="st5" d="M228.6,127.9c-2.5-3.3,11.9-5.2,10.4-4.9C234.6,124,230.3,130.1,228.6,127.9"/>
		<path class="st5" d="M225.5,158.8c-3.5-2.3,9.1-8.7,7.9-7.9C229.7,153.2,227.9,160.3,225.5,158.8"/>
		<path class="st5" d="M198.4,118.5c-0.6-3.9,13.4,0.7,11.9,0.3C205.8,117.8,198.8,121.1,198.4,118.5"/>
	</g>
	<g>
		<path class="st6" d="M181.1,126.4c1.8-4.6-16.8-3.6-14.9-3.6C172,123,179.8,129.5,181.1,126.4"/>
		<path class="st6" d="M196,123.2c1.8-4.6-16.8-3.6-14.9-3.6C187,119.8,194.8,126.4,196,123.2"/>
		<path class="st6" d="M204.1,132.4c1.8-4.6-16.8-3.6-14.9-3.6C195,129,202.8,135.5,204.1,132.4"/>
		<path class="st6" d="M219.2,130.1c1.8-4.6-16.8-3.6-14.9-3.6C210.1,126.7,217.9,133.2,219.2,130.1"/>
		<path class="st6" d="M180.6,113.7c-1.2-4.9-15.8,5.3-14.2,4.4C171.2,115.4,181.5,117,180.6,113.7"/>
		<path class="st6" d="M203,107.4c-1.2-4.9-15.8,5.3-14.2,4.4C193.6,109,203.8,110.7,203,107.4"/>
		<path class="st6" d="M215.3,116.8c0.7-4.9-17.1-0.3-15.2-0.7C205.8,115.1,214.8,120.1,215.3,116.8"/>
		<path class="st6" d="M181.8,103.8c-2.1-4.7-14.6,7.6-13.2,6.4C172.8,106.7,183.2,106.9,181.8,103.8"/>
		<path class="st6" d="M202.6,94.2c-2.1-4.7-14.6,7.6-13.2,6.4C193.6,97.2,204,97.4,202.6,94.2"/>
		<path class="st6" d="M215.3,95.9c-2.1-4.7-14.6,7.6-13.2,6.4C206.4,98.9,216.7,99.1,215.3,95.9"/>
		<path class="st6" d="M177.9,90.4c-4.2-3.3-8.5,13.3-7.9,11.6C171.8,97,180.7,92.6,177.9,90.4"/>
		<path class="st6" d="M190.1,83c-4.2-3.3-8.5,13.3-7.9,11.6C184,89.7,192.9,85.3,190.1,83"/>
		<path class="st6" d="M202.8,82.5c-2.7-4.4-13.2,9.4-12,8.1C194.5,86.6,204.7,85.5,202.8,82.5"/>
		<path class="st6" d="M181.7,72.4c-4.7-2.7-6.1,14.4-5.8,12.7C176.9,79.9,184.9,74.2,181.7,72.4"/>
		<path class="st6" d="M146.6,118.1c0.5-5,16.6,4.4,14.9,3.6C156.2,119.2,146.3,121.5,146.6,118.1"/>
		<path class="st6" d="M134.7,108.6c0.5-4.9,16.6,4.4,14.9,3.6C144.3,109.7,134.4,111.9,134.7,108.6"/>
		<path class="st6" d="M123.4,113.1c0.5-5,16.6,4.4,14.9,3.6C133,114.2,123.1,116.4,123.4,113.1"/>
		<path class="st6" d="M111,104.2c0.5-5,16.6,4.4,14.9,3.6C120.6,105.3,110.7,107.6,111,104.2"/>
		<path class="st6" d="M153.8,105.7c4.3-2.8,8.1,14.1,7.5,12.4C159.7,113,150.9,107.6,153.8,105.7"/>
		<path class="st6" d="M135.7,91.3c3.3-3.8,11.7,11.9,10.7,10.4C143.4,97,133.5,93.8,135.7,91.3"/>
		<path class="st6" d="M120.4,94.1c1.6-4.7,15.4,7.4,13.9,6.3C129.7,96.9,119.4,97.2,120.4,94.1"/>
		<path class="st6" d="M152,91.9c4-3.3,9.6,13.4,8.9,11.7C158.7,98.6,149.4,94.1,152,91.9"/>
		<path class="st6" d="M142,79.7c4-3.3,9.6,13.4,8.9,11.7C148.6,86.4,139.3,81.9,142,79.7"/>
		<path class="st6" d="M129.9,75.5c4-3.3,9.6,13.4,8.9,11.7C136.5,82.2,127.2,77.7,129.9,75.5"/>
		<path class="st6" d="M164.7,94.3c5.3-1,1.6,15.7,1.8,14C167.1,103,161.1,95,164.7,94.3"/>
		<path class="st6" d="M158.2,75.4c5.3-1,1.6,15.7,1.8,14C160.6,84.1,154.7,76.1,158.2,75.4"/>
		<path class="st6" d="M147.1,69.2c4.4-2.7,7.6,14.4,7.1,12.7C152.7,76.6,144.1,71,147.1,69.2"/>
		<path class="st6" d="M167.8,70.5c5.4-0.2-1.1,15.6-0.6,14C168.7,79.4,164.1,70.7,167.8,70.5"/>
		<path class="st6" d="M165,147c5.4-0.4-4.8-15.3-3.9-13.7C163.8,138.1,161.3,147.3,165,147"/>
		<path class="st6" d="M175.4,157.9c5.4-0.4-4.8-15.3-3.9-13.7C174.2,149.1,171.7,158.2,175.4,157.9"/>
		<path class="st6" d="M170.5,168.4c5.4-0.4-4.8-15.3-3.9-13.7C169.3,159.5,166.8,168.6,170.5,168.4"/>
		<path class="st6" d="M180.1,179.8c5.4-0.4-4.8-15.3-3.9-13.7C178.9,171,176.5,180.1,180.1,179.8"/>
		<path class="st6" d="M194.2,157c4.1-3.1-12.9-10.8-11.3-9.8C188,150,191.4,159.1,194.2,157"/>
		<path class="st6" d="M191.1,171.1c5.1-1.4-8.1-14.2-6.8-12.8C188,162.6,187.7,172.1,191.1,171.1"/>
		<path class="st6" d="M193.5,142c3.5-3.6-14.5-8.8-12.7-8.2C186.2,135.9,191.1,144.5,193.5,142"/>
		<path class="st6" d="M206.7,151.2c3.5-3.6-14.5-8.9-12.7-8.2C199.5,145.1,204.3,153.7,206.7,151.2"/>
		<path class="st6" d="M211.3,162.4c3.5-3.6-14.5-8.9-12.7-8.2C204,156.3,208.9,164.9,211.3,162.4"/>
		<path class="st6" d="M178.3,139.5c4.3-2.9-12.5-11.2-10.9-10.2C172.4,132.3,175.5,141.5,178.3,139.5"/>
		<path class="st6" d="M164,176.8c5.4-0.6-5.3-15.1-4.4-13.6C162.5,168,160.4,177.2,164,176.8"/>
		<path class="st6" d="M218.2,146.6c2.9-4.1-15.6-7-13.8-6.5C210.1,141.4,216.2,149.3,218.2,146.6"/>
		<path class="st6" d="M153.7,157.1c-5.4-0.7,4.3-15,3.5-13.5C154.6,148.3,157.3,157.5,153.7,157.1"/>
		<path class="st6" d="M141.9,149.1c-4.6-2.8,11.1-11.5,9.6-10.5C146.9,141.8,145,151,141.9,149.1"/>
		<path class="st6" d="M141.5,160.6c-4.6-2.8,11.2-11.5,9.6-10.5C146.6,153.3,144.6,162.5,141.5,160.6"/>
		<path class="st6" d="M127.8,166.5c-4.6-2.8,11.1-11.5,9.6-10.4C132.8,159.1,130.9,168.4,127.8,166.5"/>
		<path class="st6" d="M125.5,139.8c-2.3-4.6,16.4-3.8,14.5-3.7C134.2,136.3,127.1,142.9,125.5,139.8"/>
		<path class="st6" d="M121.9,153.7c-3.9-3.6,13.6-9,11.9-8.3C128.5,147.5,124.5,156.1,121.9,153.7"/>
		<path class="st6" d="M132.9,126.7c-1.5-4.9,16.9-1.3,15-1.5C142.2,124.5,134,130,132.9,126.7"/>
		<path class="st6" d="M116.9,129c-1.5-4.8,17-1.3,15-1.5C126.2,126.8,118,132.2,116.9,129"/>
		<path class="st6" d="M107.8,136.9c-1.5-4.8,16.9-1.3,15-1.5C117.1,134.7,108.8,140.1,107.8,136.9"/>
		<path class="st6" d="M147.4,131.6c-3.2-4.2,15.2-6.6,13.3-6.2C155.2,126.6,149.6,134.4,147.4,131.6"/>
		<path class="st6" d="M143.5,171.1c-4.5-3,11.6-11.1,10-10.1C148.8,163.9,146.5,173.1,143.5,171.1"/>
		<path class="st6" d="M108.8,119.6c-0.8-5,17.1,0.9,15.2,0.4C118.4,118.7,109.4,122.9,108.8,119.6"/>
	</g>
	<g>
		<path class="st6" d="M307.1,107.7c1-2.7-9.6-2.1-8.5-2C301.9,105.8,306.3,109.5,307.1,107.7"/>
		<path class="st6" d="M315.6,105.9c1-2.7-9.6-2.1-8.5-2C310.4,104,314.9,107.7,315.6,105.9"/>
		<path class="st6" d="M320.3,111.1c1-2.6-9.6-2.1-8.5-2C315.1,109.2,319.5,112.9,320.3,111.1"/>
		<path class="st6" d="M328.9,109.8c1-2.7-9.6-2.1-8.5-2C323.7,107.9,328.2,111.6,328.9,109.8"/>
		<path class="st6" d="M306.8,100.4c-0.7-2.8-9.1,3-8.2,2.5C301.4,101.4,307.3,102.3,306.8,100.4"/>
		<path class="st6" d="M319.6,96.8c-0.7-2.8-9.1,3-8.2,2.5C314.2,97.7,320.1,98.7,319.6,96.8"/>
		<path class="st6" d="M326.7,102.2c0.4-2.8-9.8-0.2-8.7-0.4C321.2,101.3,326.4,104.1,326.7,102.2"/>
		<path class="st6" d="M307.5,94.7c-1.2-2.7-8.4,4.3-7.6,3.7C302.3,96.4,308.3,96.6,307.5,94.7"/>
		<path class="st6" d="M319.4,89.2c-1.2-2.7-8.4,4.3-7.6,3.7C314.3,90.9,320.2,91.1,319.4,89.2"/>
		<path class="st6" d="M326.7,90.2c-1.2-2.7-8.4,4.3-7.6,3.7C321.6,91.9,327.5,92.1,326.7,90.2"/>
		<path class="st6" d="M305.2,87.1c-2.4-1.9-4.9,7.6-4.5,6.7C301.7,90.9,306.9,88.3,305.2,87.1"/>
		<path class="st6" d="M312.2,82.9c-2.4-1.9-4.9,7.6-4.5,6.7C308.7,86.7,313.8,84.1,312.2,82.9"/>
		<path class="st6" d="M319.5,82.5c-1.6-2.5-7.6,5.4-6.9,4.6C314.7,84.9,320.6,84.2,319.5,82.5"/>
		<path class="st6" d="M307.4,76.8c-2.7-1.5-3.5,8.3-3.3,7.3C304.7,81,309.3,77.8,307.4,76.8"/>
		<path class="st6" d="M287.3,103c0.3-2.8,9.5,2.5,8.5,2C292.8,103.6,287.1,104.9,287.3,103"/>
		<path class="st6" d="M280.5,97.5c0.3-2.8,9.5,2.5,8.5,2C286,98.1,280.3,99.4,280.5,97.5"/>
		<path class="st6" d="M274,100.1c0.3-2.8,9.5,2.5,8.5,2C279.5,100.7,273.8,102,274,100.1"/>
		<path class="st6" d="M266.9,95c0.3-2.8,9.5,2.5,8.5,2C272.4,95.6,266.7,96.9,266.9,95"/>
		<path class="st6" d="M291.4,95.9c2.5-1.6,4.6,8.1,4.3,7.1C294.8,100,289.8,97,291.4,95.9"/>
		<path class="st6" d="M281.1,87.6c1.9-2.2,6.7,6.8,6.1,5.9C285.4,90.8,279.8,89,281.1,87.6"/>
		<path class="st6" d="M272.3,89.2c0.9-2.7,8.8,4.3,7.9,3.6C277.6,90.8,271.7,91,272.3,89.2"/>
		<path class="st6" d="M290.4,87.9c2.3-1.9,5.5,7.7,5.1,6.7C294.2,91.8,288.9,89.2,290.4,87.9"/>
		<path class="st6" d="M284.7,80.9c2.3-1.9,5.5,7.7,5.1,6.7C288.5,84.8,283.1,82.2,284.7,80.9"/>
		<path class="st6" d="M277.7,78.5c2.3-1.9,5.5,7.7,5.1,6.7C281.5,82.4,276.2,79.8,277.7,78.5"/>
		<path class="st6" d="M297.7,89.3c3-0.6,0.9,9,1,8C299.1,94.3,295.6,89.7,297.7,89.3"/>
		<path class="st6" d="M294,78.5c3-0.6,0.9,9,1,8C295.3,83.5,291.9,78.9,294,78.5"/>
		<path class="st6" d="M287.6,74.9c2.5-1.5,4.3,8.2,4.1,7.3C290.8,79.2,285.9,75.9,287.6,74.9"/>
		<path class="st6" d="M299.4,75.7c3.1-0.1-0.6,9-0.3,8C300,80.8,297.3,75.8,299.4,75.7"/>
		<path class="st6" d="M297.8,119.5c3.1-0.2-2.7-8.8-2.2-7.8C297.2,114.4,295.7,119.7,297.8,119.5"/>
		<path class="st6" d="M303.8,125.8c3.1-0.2-2.7-8.8-2.2-7.8C303.1,120.7,301.7,126,303.8,125.8"/>
		<path class="st6" d="M301,131.8c3.1-0.2-2.7-8.8-2.2-7.8C300.3,126.7,298.9,131.9,301,131.8"/>
		<path class="st6" d="M306.5,138.3c3.1-0.2-2.7-8.8-2.2-7.8C305.8,133.3,304.4,138.5,306.5,138.3"/>
		<path class="st6" d="M314.6,125.3c2.4-1.8-7.4-6.2-6.5-5.6C311,121.2,313,126.5,314.6,125.3"/>
		<path class="st6" d="M312.8,133.3c2.9-0.8-4.6-8.1-3.9-7.3C311,128.5,310.8,133.9,312.8,133.3"/>
		<path class="st6" d="M314.2,116.7c2-2.1-8.3-5.1-7.3-4.7C310,113.2,312.8,118.1,314.2,116.7"/>
		<path class="st6" d="M321.8,122c2-2.1-8.3-5.1-7.3-4.7C317.6,118.5,320.4,123.4,321.8,122"/>
		<path class="st6" d="M324.4,128.4c2-2.1-8.3-5.1-7.3-4.7C320.2,124.9,323,129.8,324.4,128.4"/>
		<path class="st6" d="M305.5,115.2c2.4-1.7-7.2-6.4-6.2-5.8C302.1,111.1,303.8,116.4,305.5,115.2"/>
		<path class="st6" d="M297.3,136.6c3.1-0.3-3.1-8.7-2.5-7.8C296.4,131.6,295.2,136.8,297.3,136.6"/>
		<path class="st6" d="M328.3,119.3c1.7-2.3-9-4-7.9-3.7C323.7,116.3,327.2,120.8,328.3,119.3"/>
		<path class="st6" d="M291.3,125.3c-3.1-0.4,2.5-8.6,2-7.7C291.9,120.2,293.4,125.6,291.3,125.3"/>
		<path class="st6" d="M284.6,120.7c-2.6-1.6,6.4-6.6,5.5-6C287.5,116.5,286.4,121.8,284.6,120.7"/>
		<path class="st6" d="M284.4,127.3c-2.6-1.6,6.4-6.6,5.5-6C287.3,123.1,286.2,128.4,284.4,127.3"/>
		<path class="st6" d="M276.5,130.7c-2.6-1.6,6.4-6.6,5.5-6C279.4,126.5,278.3,131.8,276.5,130.7"/>
		<path class="st6" d="M275.2,115.4c-1.3-2.6,9.4-2.2,8.3-2.1C280.2,113.4,276.1,117.2,275.2,115.4"/>
		<path class="st6" d="M273.1,123.4c-2.2-2.1,7.8-5.2,6.8-4.8C276.9,119.8,274.6,124.8,273.1,123.4"/>
		<path class="st6" d="M279.5,107.9c-0.9-2.8,9.7-0.8,8.6-0.9C284.8,106.6,280.1,109.8,279.5,107.9"/>
		<path class="st6" d="M270.3,109.2c-0.9-2.8,9.7-0.8,8.6-0.9C275.6,107.9,270.9,111.1,270.3,109.2"/>
		<path class="st6" d="M265.1,113.7c-0.9-2.8,9.7-0.8,8.6-0.9C270.4,112.5,265.7,115.6,265.1,113.7"/>
		<path class="st6" d="M287.8,110.7c-1.8-2.4,8.7-3.8,7.6-3.6C292.2,107.8,289,112.3,287.8,110.7"/>
		<path class="st6" d="M285.5,133.3c-2.6-1.7,6.6-6.4,5.8-5.8C288.6,129.2,287.3,134.5,285.5,133.3"/>
		<path class="st6" d="M265.6,103.8c-0.4-2.8,9.8,0.5,8.7,0.2C271.1,103.3,265.9,105.7,265.6,103.8"/>
	</g>
</g>
<g>
	<g>
		<g>
			<defs>
				<rect id="SVGID_1_" x="269.5" y="0.9" width="606" height="87.9"/>
			</defs>
			<clipPath id="SVGID_2_">
				<use xlink:href="#SVGID_1_"  style="overflow:visible;"/>
			</clipPath>
			<g class="st7">
				<path class="st8" d="M892.5-24.9C879.2-14.3,864-4.4,847.2,4.7c-35.9,19.6-77.7,35-124.2,45.7c-48.1,11.1-99.1,16.7-151.8,16.7
					c-52.6,0-103.7-5.6-151.8-16.7c-46.4-10.7-88.2-26-124.1-45.7c-16.8-9.2-32-19.1-45.4-29.6 M262.4-24.9
					c70,51.2,182.4,84.5,308.8,84.5S810.1,26.3,880-24.9"/>
			</g>
		</g>
	</g>
	<g>
		<g>
			<g>
				<g>
					<polygon class="st9" points="397.5,139.2 363.2,108.2 317.5,115.2 350,21.6 421.9,43.1 					"/>
				</g>
				<g>
					<polygon class="st9" points="397.5,139.2 363.2,108.2 317.5,115.2 350,21.6 421.9,43.1 					"/>
				</g>
				<g>
					<polyline class="st10" points="385.9,32.4 421.9,43.1 397.5,139.2 363.2,108.2 					"/>
				</g>
			</g>
		</g>
		<path class="st0" d="M401.2,79.2l-11.4-3.4l-0.8,2.7l10.9,3.3l-2.7,9.1l-20.5-6.1l-0.5,1.8l18.7,5.6l-2.9,9.6l-18.7-5.6l-2.2,7.3
			l-11.4-3.4l2.2-7.3l-19.2-5.7l2.9-9.6l19.2,5.7l0.5-1.8L343.9,75l2.7-9.1l12.3,3.7l-0.1-3l-10.5-3.1l2.7-9.1l21,6.3l0.5-1.8
			l-17.3-5.2l2.9-9.6l17.3,5.2l0.8-2.7l11.4,3.4l-0.8,2.7l16.9,5.1l-2.9,9.6L384,62.1l-0.5,1.8l20.5,6.2L401.2,79.2z M378.4,72.4
			l-7.8-2.3l0.1,3l6.4,1.9L378.4,72.4z"/>
	</g>
	<g>
		<g>
			<g>
				<g>
					<polygon class="st11" points="505.4,156 466.7,130.7 422.7,144.6 440.4,47.1 514.8,57.3 					"/>
				</g>
				<g>
					<polygon class="st11" points="505.4,156 466.7,130.7 422.7,144.6 440.4,47.1 514.8,57.3 					"/>
				</g>
				<g>
					<polyline class="st12" points="477.6,52.2 514.8,57.3 505.4,156 466.7,130.7 					"/>
				</g>
			</g>
		</g>
		<g>
			<path class="st0" d="M497.6,117.8l-4,10.3c-16.6-1.7-27.7-3.6-33.2-5.5c-5.3-2.1-8.1-3.7-8.5-4.9l-8.6,4.2l-5.9-10.8l5.9-3.1
				l1.1-7.8l-4.9-0.7l1.5-8.7l8.3,1.2c-0.9-1.6-2.4-3.2-4.5-4.9c-2.1-1.8-3.2-2.7-3.3-2.7l7.2-8.4c1,0.1,2.9,1.4,5.9,3.8
				c2.8,2.4,4.4,3.8,4.9,4.2l-7.2,8.4l4.9,0.7l-2.2,15.1c0.7,1.8,2.4,3.2,5.1,4.5c2.8,1.2,6.1,2.1,9.8,2.7l0.6-3.9l-13.6-2l1.2-8.3
				l13.6,2l0.3-1.9l-12.6-1.8l2.7-19l12.6,1.8l0.2-1.5l-10.2-1.5l0.3-1.9l-4.4-0.6l0.2-1.5l-4.1,4.4c-1.6-1.4-3.8-3.1-6.5-5.1
				s-4.1-3.2-4.2-3.3l8.6-7.7c0.5,0.2,1.4,0.9,3,1.9c1.5,1,2.9,2.1,4.3,3.1l0.7-4.9l40.9,5.9l-1.9,13.1l-3.4-0.5l-0.3,1.9l-11.2-1.6
				l-0.2,1.5l12.6,1.8l-2.7,19l-12.6-1.8l-0.3,1.9l15.1,2.2l-1.2,8.3l-15.1-2.2l-0.6,3.9c4.3,0.3,8,0.5,11.1,0.6
				C495.8,117.7,497.5,117.8,497.6,117.8z M475.5,74.9l0.3-1.9l-3.4-0.5l-0.3,1.9L475.5,74.9z M473.4,89.5l0.3-1.9l-3.4-0.5L470,89
				L473.4,89.5z M472.5,95.8l0.2-1.5l-3.4-0.5l-0.2,1.5L472.5,95.8z M490.6,77.1l0.3-1.9l-3.4-0.5l-0.3,1.9L490.6,77.1z M488.5,91.7
				l0.3-1.9l-3.4-0.5l-0.3,1.9L488.5,91.7z M487.6,98l0.2-1.5l-3.4-0.5l-0.2,1.5L487.6,98z"/>
		</g>
	</g>
	<g>
		<g>
			<polygon class="st13" points="612,157.7 570.2,137.9 528.5,157.7 532.7,58.7 607.8,58.7 			"/>
			<polygon class="st13" points="612,157.7 570.2,137.9 528.5,157.7 532.7,58.7 607.8,58.7 			"/>
			<polyline class="st14" points="570.2,58.7 607.8,58.7 612,157.7 570.2,137.9 			"/>
		</g>
		<path class="st0" d="M599.4,119.6c-0.6,0.6-1.8,2.5-3.6,5.7c-1.9,3.3-2.9,5.2-3.1,5.7c-5.4-2.2-10.3-5.7-14.8-10.5
			c-4.6-4.6-7-7.1-7.1-7.6c-5.6,7.3-10.6,12.2-15.2,14.8c-4.6,2.4-7,3.5-7.1,3.3c-0.3-1-1.4-3-3.3-6.2c-2.1-3.2-3.2-4.9-3.3-5.2
			c9.2-3.8,15.1-8,17.6-12.6s3.6-7.1,3.3-7.4h-20.9V87.7h21.4V74.4h12.9v13.3h22.4v11.9h-20.9c2.2,6,6.3,10.8,12.1,14.3
			C595.4,117.5,598.6,119.5,599.4,119.6z"/>
	</g>
	<g>
		<g>
			<g>
				<g>
					<polygon class="st11" points="719,144.8 674.9,130.9 636.3,156.2 627,57.5 701.4,47.3 					"/>
				</g>
				<g>
					<polygon class="st11" points="719,144.8 674.9,130.9 636.3,156.2 627,57.5 701.4,47.3 					"/>
				</g>
				<g>
					<polyline class="st12" points="664.2,52.4 701.4,47.3 719,144.8 674.9,130.9 					"/>
				</g>
			</g>
		</g>
		<path class="st0" d="M660.5,88.9l-3.3,0.5l0.6,4.7l2.8-0.9l1.5,10.8l-2.8,0.9l2,14.6c-0.3,2.4-1.1,4.1-2.5,4.9c-1.2,0.6-1.9,1-2,1
			l-7.5,1c-1.6-3.6-2.8-6.3-3.5-8.2l-1.3-2.7l3.3-0.5c1.1-0.2,1.7-0.5,1.8-1l0.4-0.8l-0.7-5.2l-5.1,1.7L641.8,99l6-1.8l-0.9-6.6
			l-5.7,0.8l-1.5-10.8l5.7-0.8l-1.2-9l10.4-1.4l1.2,9l3.3-0.5L660.5,88.9z M702.2,119.3l-10.8,1.5l-0.3-1.9l-15.6,2.1l0.3,1.9
			l-9.9,1.4l-6.4-46.7l12.3-1.7l-1.3-9.4l11.3-1.6l1.3,9.4l12.7-1.7L702.2,119.3z M674,92.4l-0.8-5.7l-2.4,0.3l0.8,5.7L674,92.4z
			 M676.4,109.8l-0.8-6.1l-2.4,0.3l0.8,6.1L676.4,109.8z M687.6,90.5l-0.8-5.7l-2.4,0.3l0.8,5.7L687.6,90.5z M690,108l-0.8-6.1
			l-2.4,0.3l0.8,6.1L690,108z"/>
	</g>
	<g>
		<g>
			<g>
				<g>
					<polygon class="st9" points="820.8,117.1 775.2,109.7 740.6,140.3 717.2,44 789.3,23.2 					"/>
				</g>
				<g>
					<polygon class="st9" points="820.8,117.1 775.2,109.7 740.6,140.3 717.2,44 789.3,23.2 					"/>
				</g>
				<g>
					<polyline class="st10" points="753.3,33.6 789.3,23.2 820.8,117.1 775.2,109.7 					"/>
				</g>
			</g>
		</g>
		<path class="st0" d="M797.9,86.1l-0.6,10.1c-7.7,1.2-13.8,1.4-18.2,0.5c-4.5-0.7-6.8-1.1-6.8-1.3c-5,4.9-9.5,8.4-13.3,10.5
			c-3.9,2-5.9,2.9-6.1,3l-9-7.3c6.1-2.4,10.3-4.4,12.7-5.9l3.3-2.2L743,98.4l-2.5-8.7l5.5-1.6l-6.5-2.1c0.5-2.3,0.6-4.1,0.4-5.3
			c0-1.3-0.1-2-0.1-2.2l-2.7,0.8L735,72l11.4-3.3l-0.5-1.8l-10.1,2.9l-3.3-11.4l7.8-2.2l1.1,3.7l2.3-0.7l-1.6-5.5l9.1-2.6l1.3,4.6
			c2.3-1.7,4.2-3.4,5.7-5.1c1.5-1.7,2.3-2.6,2.4-2.7l10.7-2.6l-1.4,1.9l12.8-3.7l1.8,6.4c-0.2,0.4-1,1.3-2.4,2.7
			c-1.5,1.6-2.3,2.5-2.4,2.7l4.1-1.2l1.1,3.7l4.1-1.2l2.4,8.2l-4.1,1.2l1.7,5.9l2-1.1l2.6,3.7l0.9-0.3l2.5,8.7l-15.1,4.4
			c1.8,0.5,4.8,0.4,9.1-0.2C795.3,86.4,797.6,86,797.9,86.1z M766.1,72l-6.4,1.9L758,68l-2.1-0.4l4.5,15.5l-9.1,2.6l-2.8-9.6
			l-1.4,0.4c1.1,3.7,1.5,7.3,1.2,11l14.6-4.2l-1.2-4.1l4.1-1.2l-3.2-2.5L766.1,72z M758.8,62.2l-1.6-2l-1.1,1.3l-2.9-3.1l2,6.9
			L758.8,62.2z M765.3,57.4l-1.9-1.4l-1.7,1l1.9,1.4L765.3,57.4z M774.2,60.7l-0.4-1.4c0-0.2-1.2,0.4-3.5,1.5
			c-2.2,1.1-4.2,2-6.1,2.8L774.2,60.7z M784.4,77.1l-1-1.7l-6.4,1.8c-0.3-0.9-1.1-1.3-2.4-1.3l-2.3,2.2l0.7,2.3L784.4,77.1z
			 M771.5,53.1l-4.6,1.3l1.3,1.1L771.5,53.1z M776.6,69l-4.1,1.2l2,1.9l1.4-0.4C777.1,71.3,777.4,70.4,776.6,69z"/>
	</g>
</g>
</svg>
