<?xml version="1.0" encoding="utf-8"?>
<!-- Generator: Adobe Illustrator 22.0.1, SVG Export Plug-In . SVG Version: 6.00 Build 0)  -->
<svg version="1.1" id="圖層_1" xmlns="http://www.w3.org/2000/svg" xmlns:xlink="http://www.w3.org/1999/xlink" x="0px" y="0px"
	 viewBox="0 0 437.8 437.1" style="enable-background:new 0 0 437.8 437.1;" xml:space="preserve">
<style type="text/css">
	.st0{fill-rule:evenodd;clip-rule:evenodd;fill:#ED3F5A;}
</style>
<g>
	<path class="st0" d="M149.7,226.8c-7.2-18.1,65.8-14.2,58.3-13.9C185.2,213.5,154.5,239.1,149.7,226.8"/>
	<path class="st0" d="M91,214.5c-7.2-18.1,65.8-14.2,58.3-13.9C126.5,201.2,95.9,226.8,91,214.5"/>
	<path class="st0" d="M59.4,250.3c-7.2-18.1,65.8-14.1,58.3-13.9C94.9,237,64.2,262.6,59.4,250.3"/>
	<path class="st0" d="M0.1,241.4c-7.2-18.2,65.8-14.2,58.3-14C35.6,228.1,5,253.6,0.1,241.4"/>
	<path class="st0" d="M151.4,177.2c4.9-19.2,62.1,20.8,55.8,17.3C188.2,183.6,148.1,190.2,151.4,177.2"/>
	<path class="st0" d="M63.8,152.2c4.9-19.2,62.1,20.8,55.8,17.2C100.7,158.5,60.5,165.2,63.8,152.2"/>
	<path class="st0" d="M15.3,189.1c-2.8-19.3,67-1.4,59.7-2.6C52.7,182.7,17.2,202.1,15.3,189.1"/>
	<path class="st0" d="M146.9,138.1c8.1-18.4,57.4,29.7,51.8,25.2C182,149.7,141.5,150.5,146.9,138.1"/>
	<path class="st0" d="M65.2,100.6c8.1-18.4,57.4,29.7,51.8,25.2C100.3,112.2,59.8,113,65.2,100.6"/>
	<path class="st0" d="M15.3,107.4c8.1-18.4,57.4,29.7,51.8,25.2C50.4,119,9.9,119.9,15.3,107.4"/>
	<path class="st0" d="M162.3,85.6c16.6-12.9,33.4,52.2,31,45.7C186.1,111.7,151.1,94.3,162.3,85.6"/>
	<path class="st0" d="M114.4,56.8c16.6-12.9,33.3,52.2,31,45.7C138.2,82.9,103.2,65.5,114.4,56.8"/>
	<path class="st0" d="M64.3,54.6c10.7-17.3,52,36.9,47.2,31.7C97.1,70.7,57,66.3,64.3,54.6"/>
	<path class="st0" d="M147.1,15.1c18.5-10.4,23.8,56.7,22.6,49.9C166,44.4,134.6,22.1,147.1,15.1"/>
	<path class="st0" d="M284.7,194.5c-1.8-19.4-65.1,17.2-58.3,13.9C247,198.7,285.9,207.7,284.7,194.5"/>
	<path class="st0" d="M331.5,157c-1.8-19.4-65.1,17.2-58.3,13.9C293.8,161.2,332.7,170.1,331.5,157"/>
	<path class="st0" d="M375.9,174.7c-1.8-19.4-65.1,17.2-58.3,13.9C338.2,178.9,377.1,187.8,375.9,174.7"/>
	<path class="st0" d="M424.7,139.9c-1.8-19.4-65.1,17.2-58.3,13.9C387,144,425.9,153,424.7,139.9"/>
	<path class="st0" d="M256.6,145.8c-17-11.2-31.7,55.5-29.6,48.8C233.6,174.2,268.1,153.3,256.6,145.8"/>
	<path class="st0" d="M327.5,89.1c-13.1-14.9-45.9,46.7-42,40.6C297.5,111.5,336.4,99.2,327.5,89.1"/>
	<path class="st0" d="M387.5,100c-6.2-18.5-60.4,29.1-54.4,24.7C351.3,111.3,391.7,112.5,387.5,100"/>
	<path class="st0" d="M263.5,91.6c-15.5-12.8-37.8,52.4-34.8,45.9C237.5,117.8,274,100.2,263.5,91.6"/>
	<path class="st0" d="M302.9,43.7c-15.5-12.8-37.7,52.4-34.8,45.9C276.9,70,313.4,52.4,302.9,43.7"/>
	<path class="st0" d="M350.5,27.2c-15.5-12.8-37.7,52.4-34.8,45.9C324.5,53.5,361,35.9,350.5,27.2"/>
	<path class="st0" d="M213.9,100.9c-20.6-4-6.1,61.6-7,54.8C204.4,134.9,227.8,103.6,213.9,100.9"/>
	<path class="st0" d="M239.3,27c-20.6-4-6.2,61.6-7,54.8C229.8,61,253.2,29.6,239.3,27"/>
	<path class="st0" d="M283,2.3C265.6-8.3,253.3,58.7,255.2,52C261,31.5,294.7,9.5,283,2.3"/>
	<path class="st0" d="M201.9,7.7c-21.2-0.9,4.4,61.3,2.4,54.8C198.3,42.5,216.2,8.4,201.9,7.7"/>
	<path class="st0" d="M212.9,307.6c-21.1-1.7,18.6-59.9,15.2-53.7C217.4,272.9,227.1,308.7,212.9,307.6"/>
	<path class="st0" d="M172.1,350.6c-21.1-1.7,18.6-59.9,15.2-53.7C176.6,315.9,186.3,351.8,172.1,350.6"/>
	<path class="st0" d="M191.3,391.5c-21.1-1.7,18.6-59.9,15.1-53.7C195.8,356.8,205.5,392.7,191.3,391.5"/>
	<path class="st0" d="M153.4,436.4c-21.1-1.7,18.6-59.9,15.2-53.7C158,401.8,167.7,437.6,153.4,436.4"/>
	<path class="st0" d="M98.3,347c-16.2-12,50.7-42.3,44.1-38.6C122.6,319.4,109.3,355.1,98.3,347"/>
	<path class="st0" d="M110.2,402.2c-20.1-5.7,31.6-55.6,26.8-50.1C122.4,368.9,123.7,406.1,110.2,402.2"/>
	<path class="st0" d="M101,288.1c-13.9-14.3,56.9-34.7,49.9-32.1C129.5,264.1,110.4,297.8,101,288.1"/>
	<path class="st0" d="M49,324.4c-13.9-14.3,56.9-34.7,49.9-32.1C77.5,300.4,58.4,334,49,324.4"/>
	<path class="st0" d="M31.1,368.2C17.2,353.9,88,333.4,81,336.1C59.6,344.2,40.5,377.8,31.1,368.2"/>
	<path class="st0" d="M160.3,278.5c-16.7-11.5,49.1-43.8,42.7-40C183.6,250.1,171.6,286.2,160.3,278.5"/>
	<path class="st0" d="M216.7,424.6c-21-2.4,20.9-59.4,17.2-53.2C222.6,390.1,230.9,426.2,216.7,424.6"/>
	<path class="st0" d="M4,306c-11.5-16,61.3-27.3,54-25.5C35.7,285.8,11.8,316.8,4,306"/>
	<path class="st0" d="M257.2,347.1c21.2-2.8-17.1-59-13.7-52.9C253.6,312.7,242.9,349,257.2,347.1"/>
	<path class="st0" d="M303.3,316c18.1-11-43.7-45-37.8-41C283.6,287.2,291.1,323.5,303.3,316"/>
	<path class="st0" d="M304.8,361.2c18.1-11-43.8-45-37.8-41C285,332.3,292.5,368.6,304.8,361.2"/>
	<path class="st0" d="M358.8,384.1c18.1-11-43.7-45-37.8-41C339,355.2,346.6,391.6,358.8,384.1"/>
	<path class="st0" d="M367.5,279.4c9-18.1-64.3-14.8-56.8-14.5C333.4,265.8,361.4,291.6,367.5,279.4"/>
	<path class="st0" d="M381.9,334c15.3-14.2-53.3-35.3-46.6-32.5C355.9,309.8,371.5,343.6,381.9,334"/>
	<path class="st0" d="M338.5,228.1c5.9-19-66.5-5.2-59-6C302.2,219.6,334.5,240.9,338.5,228.1"/>
	<path class="st0" d="M401.2,236.9c5.9-19-66.5-5.2-59-6C364.9,228.5,397.2,249.8,401.2,236.9"/>
	<path class="st0" d="M437,267.9c5.9-19-66.5-5.2-59-6C400.8,259.4,433,280.8,437,267.9"/>
	<path class="st0" d="M281.6,247.3c12.6-16.3-59.6-25.9-52.3-24.3C251.2,227.8,273.2,258.4,281.6,247.3"/>
	<path class="st0" d="M297,402.2c17.7-11.6-45.5-43.5-39.4-39.7C276.2,374.1,285.1,410,297,402.2"/>
	<path class="st0" d="M433,200.2c3-19.5-67,3.4-59.7,1.6C395.7,196.5,431,213.3,433,200.2"/>
</g>
</svg>
