<?xml version="1.0" encoding="utf-8"?>
<!-- Generator: Adobe Illustrator 22.0.1, SVG Export Plug-In . SVG Version: 6.00 Build 0)  -->
<svg version="1.1" id="圖層_1" xmlns="http://www.w3.org/2000/svg" xmlns:xlink="http://www.w3.org/1999/xlink" x="0px" y="0px"
	 viewBox="0 0 480.8 476.6" style="enable-background:new 0 0 480.8 476.6;" xml:space="preserve">
<style type="text/css">
	.st0{fill-rule:evenodd;clip-rule:evenodd;fill:#E95513;}
</style>
<g>
	<path class="st0" d="M164.9,247.7c-7.9-19.9,72.1-15.5,63.8-15.3C203.8,233.1,170.2,261.1,164.9,247.7"/>
	<path class="st0" d="M100.7,234.2c-7.9-19.9,72.1-15.5,63.8-15.3C139.6,219.7,106,247.6,100.7,234.2"/>
	<path class="st0" d="M66.1,273.5c-7.8-19.8,72.1-15.5,63.8-15.3C105,258.9,71.4,286.9,66.1,273.5"/>
	<path class="st0" d="M1.2,263.7c-7.9-19.9,72.1-15.5,63.8-15.3C40.1,249.1,6.5,277.1,1.2,263.7"/>
	<path class="st0" d="M166.8,193.4c5.4-21.1,68,22.8,61.1,18.9C207.1,200.4,163.2,207.6,166.8,193.4"/>
	<path class="st0" d="M70.9,166c5.4-21.1,68,22.8,61.1,18.9C111.3,173,67.3,180.2,70.9,166"/>
	<path class="st0" d="M17.8,206.4c-3.1-21.1,73.4-1.5,65.3-2.8C58.7,199.4,19.9,220.6,17.8,206.4"/>
	<path class="st0" d="M161.9,150.6c8.8-20.2,62.8,32.5,56.7,27.6C200.3,163.3,155.9,164.2,161.9,150.6"/>
	<path class="st0" d="M72.5,109.5c8.8-20.2,62.8,32.5,56.7,27.6C110.9,122.2,66.5,123.1,72.5,109.5"/>
	<path class="st0" d="M17.8,117c8.8-20.2,62.8,32.5,56.8,27.6C56.2,129.7,11.9,130.6,17.8,117"/>
	<path class="st0" d="M178.7,93.1c18.2-14.1,36.5,57.1,33.9,50C204.8,121.7,166.4,102.7,178.7,93.1"/>
	<path class="st0" d="M126.3,61.6c18.2-14.1,36.5,57.1,33.9,50C152.4,90.1,114,71.1,126.3,61.6"/>
	<path class="st0" d="M71.4,59.2c11.8-18.9,56.9,40.4,51.7,34.8C107.3,76.8,63.5,72,71.4,59.2"/>
	<path class="st0" d="M162.1,15.9c20.2-11.4,26.1,62,24.8,54.6C182.8,48,148.4,23.6,162.1,15.9"/>
	<path class="st0" d="M312.8,212.4c-2-21.3-71.3,18.8-63.8,15.3C271.5,217,314.1,226.7,312.8,212.4"/>
	<path class="st0" d="M363.9,171.3c-2-21.3-71.3,18.8-63.8,15.3C322.7,175.9,365.3,185.7,363.9,171.3"/>
	<path class="st0" d="M412.6,190.6c-2-21.3-71.3,18.8-63.8,15.3C371.3,195.2,413.9,205,412.6,190.6"/>
	<path class="st0" d="M466,152.5c-2-21.3-71.3,18.8-63.8,15.3C424.7,157.1,467.3,166.9,466,152.5"/>
	<path class="st0" d="M282,159c-18.6-12.2-34.8,60.8-32.4,53.4C256.8,190.1,294.5,167.2,282,159"/>
	<path class="st0" d="M359.6,97c-14.3-16.4-50.3,51.1-46,44.5C326.8,121.4,369.3,108,359.6,97"/>
	<path class="st0" d="M425.3,108.9c-6.8-20.2-66.1,31.9-59.5,27C385.6,121.3,429.9,122.6,425.3,108.9"/>
	<path class="st0" d="M289.6,99.7c-17-14-41.3,57.4-38.1,50.3C261.1,128.4,301,109.1,289.6,99.7"/>
	<path class="st0" d="M332.7,47.3c-17-14-41.3,57.4-38.1,50.3C304.2,76,344.2,56.8,332.7,47.3"/>
	<path class="st0" d="M384.8,29.2c-17-14-41.3,57.4-38.1,50.3C356.3,58,396.3,38.7,384.8,29.2"/>
	<path class="st0" d="M235.2,109.9c-22.6-4.3-6.7,67.5-7.6,60C224.8,147.1,250.5,112.8,235.2,109.9"/>
	<path class="st0" d="M263,28.9c-22.6-4.4-6.7,67.5-7.6,60C252.7,66.2,278.3,31.9,263,28.9"/>
	<path class="st0" d="M310.8,1.9c-19-11.6-32.5,61.8-30.4,54.4C286.8,33.9,323.7,9.8,310.8,1.9"/>
	<path class="st0" d="M222.1,7.9c-23.2-1,4.8,67.2,2.6,59.9C218.1,45.9,237.8,8.6,222.1,7.9"/>
	<path class="st0" d="M234.1,336.2c-23.1-1.8,20.4-65.6,16.6-58.8C239.1,298.2,249.7,337.4,234.1,336.2"/>
	<path class="st0" d="M189.5,383.3c-23.1-1.8,20.4-65.6,16.6-58.8C194.4,345.3,205.1,384.5,189.5,383.3"/>
	<path class="st0" d="M210.4,428c-23.1-1.8,20.4-65.6,16.6-58.8C215.4,390,226.1,429.3,210.4,428"/>
	<path class="st0" d="M169,477.2c-23.1-1.8,20.4-65.6,16.6-58.8C174,439.2,184.7,478.4,169,477.2"/>
	<path class="st0" d="M108.7,379.3C90.9,366.2,164.2,333,157,337C135.3,349.1,120.7,388.2,108.7,379.3"/>
	<path class="st0" d="M121.7,439.7c-22-6.2,34.6-60.8,29.4-54.8C135.1,403.2,136.5,443.9,121.7,439.7"/>
	<path class="st0" d="M111.6,314.8c-15.2-15.6,62.3-38,54.6-35.1C142.8,288.6,121.9,325.4,111.6,314.8"/>
	<path class="st0" d="M54.7,354.5c-15.2-15.7,62.3-38,54.6-35.1C85.9,328.3,65,365.1,54.7,354.5"/>
	<path class="st0" d="M35.1,402.5c-15.2-15.6,62.3-38,54.6-35.1C66.3,376.3,45.4,413.1,35.1,402.5"/>
	<path class="st0" d="M176.6,304.2c-18.3-12.6,53.8-48,46.8-43.8C202.1,273.2,189,312.7,176.6,304.2"/>
	<path class="st0" d="M238.3,464.3c-23-2.6,22.9-65,18.8-58.3C244.7,426.5,253.8,466,238.3,464.3"/>
	<path class="st0" d="M5.5,334.4c-12.6-17.5,67.1-29.9,59.1-28C40.1,312.3,14,346.2,5.5,334.4"/>
	<path class="st0" d="M282.6,379.5c23.2-3.1-18.7-64.5-15-57.9C278.7,341.7,267,381.5,282.6,379.5"/>
	<path class="st0" d="M333.2,345.4c19.8-12.1-47.9-49.3-41.4-44.9C311.5,313.8,319.8,353.5,333.2,345.4"/>
	<path class="st0" d="M334.7,394.8c19.8-12.1-47.9-49.3-41.4-44.9C313.1,363.2,321.3,403,334.7,394.8"/>
	<path class="st0" d="M393.8,419.9c19.8-12.1-47.9-49.3-41.4-44.9C372.2,388.3,380.5,428.1,393.8,419.9"/>
	<path class="st0" d="M403.4,305.3c9.9-19.8-70.4-16.2-62.2-15.9C366,290.4,396.7,318.7,403.4,305.3"/>
	<path class="st0" d="M419.1,365.1c16.8-15.5-58.4-38.6-51-35.6C390.6,338.6,407.8,375.6,419.1,365.1"/>
	<path class="st0" d="M371.6,249.1c6.5-20.8-72.8-5.7-64.6-6.6C331.9,239.9,367.2,263.2,371.6,249.1"/>
	<path class="st0" d="M440.3,258.8c6.5-20.8-72.8-5.7-64.6-6.6C400.6,249.5,435.9,272.9,440.3,258.8"/>
	<path class="st0" d="M479.5,292.7c6.5-20.8-72.8-5.7-64.6-6.6C439.8,283.4,475.1,306.8,479.5,292.7"/>
	<path class="st0" d="M309.4,270.2c13.7-17.8-65.2-28.4-57.3-26.6C276.1,248.8,300.1,282.2,309.4,270.2"/>
	<path class="st0" d="M326.2,439.8c19.3-12.7-49.8-47.6-43.1-43.5C303.4,408.9,313.2,448.3,326.2,439.8"/>
	<path class="st0" d="M475.1,218.6c3.3-21.3-73.4,3.7-65.3,1.8C434.2,214.5,472.9,233,475.1,218.6"/>
</g>
</svg>
