<?xml version="1.0" encoding="utf-8"?>
<!-- Generator: Adobe Illustrator 22.0.1, SVG Export Plug-In . SVG Version: 6.00 Build 0)  -->
<svg version="1.1" id="圖層_1" xmlns="http://www.w3.org/2000/svg" xmlns:xlink="http://www.w3.org/1999/xlink" x="0px" y="0px"
	 viewBox="0 0 545.5 543" style="enable-background:new 0 0 545.5 543;" xml:space="preserve">
<style type="text/css">
	.st0{fill-rule:evenodd;clip-rule:evenodd;fill:#009FE8;}
</style>
<g>
	<path class="st0" d="M187.5,282.6c-8.9-22.6,81.9-17.6,72.6-17.4C231.7,266,193.6,297.8,187.5,282.6"/>
	<path class="st0" d="M114.5,267.3c-8.9-22.6,81.9-17.6,72.5-17.4C158.7,250.7,120.6,282.5,114.5,267.3"/>
	<path class="st0" d="M75.2,311.9c-8.9-22.6,81.9-17.6,72.5-17.3C119.4,295.3,81.2,327.1,75.2,311.9"/>
	<path class="st0" d="M1.5,300.7c-8.9-22.6,81.9-17.6,72.5-17.4C45.6,284.2,7.5,316,1.5,300.7"/>
	<path class="st0" d="M189.6,220.9c6.1-23.9,77.2,25.9,69.5,21.5C235.5,228.8,185.5,237.1,189.6,220.9"/>
	<path class="st0" d="M80.7,189.7c6.1-23.9,77.2,25.9,69.5,21.5C126.5,197.6,76.6,205.9,80.7,189.7"/>
	<path class="st0" d="M20.3,235.6c-3.5-24,83.4-1.7,74.2-3.2C66.8,227.7,22.7,251.8,20.3,235.6"/>
	<path class="st0" d="M184.1,172.2c10-22.9,71.4,36.9,64.5,31.3C227.7,186.7,177.3,187.7,184.1,172.2"/>
	<path class="st0" d="M82.5,125.6c10-22.9,71.3,36.9,64.5,31.4C126.1,140,75.7,141,82.5,125.6"/>
	<path class="st0" d="M20.3,134.1c10-22.9,71.4,36.9,64.5,31.3C64,148.5,13.6,149.5,20.3,134.1"/>
	<path class="st0" d="M203.2,106.9c20.7-16,41.5,64.9,38.6,56.9C232.8,139.4,189.2,117.8,203.2,106.9"/>
	<path class="st0" d="M143.6,71.1c20.7-16,41.5,64.9,38.6,56.9C173.3,103.5,129.7,81.9,143.6,71.1"/>
	<path class="st0" d="M81.3,68.3c13.4-21.5,64.7,45.9,58.8,39.5C122,88.3,72.3,82.9,81.3,68.3"/>
	<path class="st0" d="M184.3,19.2c23-13,29.7,70.5,28.2,62.1C207.8,55.7,168.7,27.9,184.3,19.2"/>
	<path class="st0" d="M355.5,242.4c-2.3-24.2-81,21.3-72.5,17.3C308.6,247.7,357,258.8,355.5,242.4"/>
	<path class="st0" d="M413.7,195.7c-2.2-24.2-81,21.3-72.6,17.3C366.8,201,415.2,212.1,413.7,195.7"/>
	<path class="st0" d="M468.9,217.7c-2.2-24.2-81,21.3-72.5,17.3C422,222.9,470.4,234,468.9,217.7"/>
	<path class="st0" d="M529.6,174.4c-2.3-24.2-81,21.3-72.5,17.3C482.8,179.6,531.2,190.7,529.6,174.4"/>
	<path class="st0" d="M320.6,181.8c-21.1-13.9-39.5,69.1-36.8,60.7C291.9,217.2,334.8,191.1,320.6,181.8"/>
	<path class="st0" d="M408.8,111.3c-16.3-18.6-57.1,58.1-52.2,50.5C371.5,139.1,419.8,123.8,408.8,111.3"/>
	<path class="st0" d="M483.4,124.9c-7.7-23-75.1,36.2-67.7,30.7C438.3,138.9,488.6,140.4,483.4,124.9"/>
	<path class="st0" d="M329.1,114.4c-19.3-15.9-47,65.2-43.3,57.1C296.8,147,342.2,125.1,329.1,114.4"/>
	<path class="st0" d="M378.2,54.8C358.8,39,331.2,120,334.8,112C345.8,87.5,391.2,65.6,378.2,54.8"/>
	<path class="st0" d="M437.4,34.3c-19.3-15.9-47,65.2-43.3,57.1C405,67,450.4,45.1,437.4,34.3"/>
	<path class="st0" d="M267.4,125.9c-25.7-4.9-7.6,76.7-8.7,68.2C255.6,168.3,284.7,129.3,267.4,125.9"/>
	<path class="st0" d="M299,34c-25.7-4.9-7.7,76.7-8.7,68.1C287.2,76.3,316.3,37.3,299,34"/>
	<path class="st0" d="M353.3,3.3c-21.6-13.2-36.9,70.2-34.5,61.8C326,39.6,368,12.2,353.3,3.3"/>
	<path class="st0" d="M252.5,10c-26.4-1.1,5.4,76.3,3,68.1C248,53.3,270.3,10.8,252.5,10"/>
	<path class="st0" d="M266.1,383.1c-26.3-2.1,23.2-74.6,18.9-66.8C271.8,340,283.8,384.5,266.1,383.1"/>
	<path class="st0" d="M215.4,436.6c-26.3-2.1,23.2-74.6,18.9-66.8C221.1,393.5,233.1,438,215.4,436.6"/>
	<path class="st0" d="M239.2,487.5c-26.3-2.1,23.2-74.6,18.8-66.8C244.9,444.3,257,488.9,239.2,487.5"/>
	<path class="st0" d="M192.2,543.4c-26.3-2.1,23.2-74.6,18.9-66.8C197.9,500.2,209.9,544.8,192.2,543.4"/>
	<path class="st0" d="M123.6,432.1c-20.2-14.9,63.1-52.6,54.9-48.1C153.8,397.8,137.3,442.3,123.6,432.1"/>
	<path class="st0" d="M138.4,500.8c-25-7.1,39.3-69.1,33.4-62.3C153.6,459.3,155.2,505.6,138.4,500.8"/>
	<path class="st0" d="M127,358.8c-17.3-17.8,70.8-43.2,62.1-39.9C162.4,329,138.6,370.9,127,358.8"/>
	<path class="st0" d="M62.3,403.9c-17.3-17.8,70.8-43.2,62.1-39.9C97.8,374.2,74,416,62.3,403.9"/>
	<path class="st0" d="M40,458.5c-17.3-17.8,70.8-43.2,62.1-39.9C75.5,428.7,51.7,470.5,40,458.5"/>
	<path class="st0" d="M200.8,346.8c-20.8-14.3,61.1-54.5,53.1-49.7C229.7,311.6,214.8,356.5,200.8,346.8"/>
	<path class="st0" d="M270.9,528.7c-26.1-2.9,26-73.9,21.3-66.2C278.2,485.7,288.6,530.7,270.9,528.7"/>
	<path class="st0" d="M6.3,381.1c-14.3-19.9,76.3-34,67.1-31.8C45.7,356,16,394.6,6.3,381.1"/>
	<path class="st0" d="M321.3,432.3c26.3-3.5-21.2-73.3-17.1-65.8C316.8,389.4,303.5,434.7,321.3,432.3"/>
	<path class="st0" d="M378.7,393.6c22.5-13.7-54.4-56-47-51C354.1,357.7,363.5,402.9,378.7,393.6"/>
	<path class="st0" d="M380.4,449.7c22.5-13.7-54.5-56-47-51C355.8,413.8,365.2,459,380.4,449.7"/>
	<path class="st0" d="M447.7,478.3c22.5-13.7-54.4-56-47-51C423.1,442.4,432.5,487.6,447.7,478.3"/>
	<path class="st0" d="M458.5,348.1c11.2-22.5-80.1-18.4-70.7-18C416,331.1,450.9,363.3,458.5,348.1"/>
	<path class="st0" d="M476.4,416c19.1-17.6-66.4-43.9-57.9-40.5C444,385.9,463.5,427.9,476.4,416"/>
	<path class="st0" d="M422.4,284.2c7.3-23.7-82.7-6.5-73.4-7.5C377.3,273.7,417.4,300.2,422.4,284.2"/>
	<path class="st0" d="M500.4,295.2c7.3-23.7-82.7-6.5-73.4-7.5C455.3,284.6,495.5,311.2,500.4,295.2"/>
	<path class="st0" d="M545,333.7c7.3-23.7-82.7-6.5-73.4-7.5C499.9,323.2,540,349.7,545,333.7"/>
	<path class="st0" d="M351.7,308.1c15.6-20.3-74.1-32.3-65.1-30.3C313.9,283.9,341.1,321.8,351.7,308.1"/>
	<path class="st0" d="M370.8,500.8c22-14.4-56.6-54.1-49-49.4C344.9,465.8,356,510.6,370.8,500.8"/>
	<path class="st0" d="M540,249.5c3.7-24.2-83.4,4.2-74.2,2C493.5,244.9,537.5,265.8,540,249.5"/>
</g>
</svg>
