<?xml version="1.0" encoding="utf-8"?>
<!-- Generator: Adobe Illustrator 22.0.1, SVG Export Plug-In . SVG Version: 6.00 Build 0)  -->
<svg version="1.1" id="圖層_1" xmlns="http://www.w3.org/2000/svg" xmlns:xlink="http://www.w3.org/1999/xlink" x="0px" y="0px"
	 viewBox="0 0 1268 687.6" style="enable-background:new 0 0 1268 687.6;" xml:space="preserve">
<style type="text/css">
	.st0{fill:#ADDAF5;}
	.st1{fill:none;stroke:#C8E3F2;stroke-width:5;stroke-linecap:round;stroke-linejoin:round;stroke-miterlimit:10;}
	.st2{fill:#CAE7F7;}
</style>
<g>
	<path class="st0" d="M25.2,672.2H1237c3.5,0,6.3-3,6.3-6.6l2-401.4c0-4.1,3.4-7.5,7.5-7.5h9.5c4.2,0,7.5-3.4,7.5-7.5v-65.4
		c0-3.6-2.8-6.6-6.3-6.6H5.4c-4.2,0-7.5,3.4-7.5,7.5v64.5c0,4.2,3.4,7.5,7.5,7.5l12.4,0c4.2,0,7.5,3.4,7.5,7.5V672.2z"/>
</g>
<line class="st1" x1="-2.1" y1="256.8" x2="1269.7" y2="256.8"/>
<path class="st2" d="M706.6,684.2H597.5l-3.9-499.5c0-4.2,3.3-7.6,7.5-7.6H703c4.2,0,7.5,3.4,7.5,7.6L706.6,684.2z"/>
<g>
	<path class="st0" d="M548.2,51.4c-40.8,0-62.7,63.1-20.1,89.4c35,21.6,84.2,17.8,100.6,15.8c3.1-0.4,5.4-3.2,5.1-6.4
		C626.9,70.3,595,51.4,548.2,51.4z M537,113.9c-1.3-17.2,17.3-39.3,46.6-25.1c22.7,11,27.2,41.2,28.2,54.4c0.2,3.4-2.5,6.3-5.9,6.3
		C545.2,148.9,538.3,130.6,537,113.9z"/>
	<path class="st0" d="M841.8,72.3c0-0.1,0-0.3,0-0.4c0.1-45.3-43-59.8-43-59.8s-40.1-16.9-76.2,3.4c-36.1,20.3-55.8,51.8-66.6,124.8
		c0,0.2-0.1,0.4-0.1,0.6l-0.5,12.6c-0.1,3.1,2.2,5.8,5.4,6.1c13.3,1.1,48,3.2,80.9-1.6C783.3,152,846.5,129.9,841.8,72.3z
		 M748.5,143.9c-28,6.8-48.1,6.8-57.6,6.3c-3.4-0.2-5.9-3.2-5.5-6.5c0.6-5.2,1.5-12.8,2.3-18.7c1.4-9.8,2.9-35,27.5-55.2
		s52.5-8.5,52.5-8.5C818.4,81.2,788.3,134.2,748.5,143.9z"/>
	<path class="st0" d="M898.1,101.2c-1.6-4.2-7-5.1-9.9-1.8c-9.3,10.6-27.1,29.4-42.4,36.2c-8.3,3.7-20,8.1-31.3,12.2
		c-6.5,2.3-4.3,12,2.5,11.4c14.8-1.3,32.1-4.1,48.3-9.6c22.7-7.7,35.4-14.3,42.1-18.5c3.5-2.2,3.7-7.3,0.3-9.7l-1.2-0.9
		c-0.9-0.7-1.6-1.6-2-2.7L898.1,101.2z"/>
	<path class="st0" d="M482.1,126.6c6.9,0.1,8.3-9.7,1.7-11.5c-9.2-2.5-21.4-5-37.4-7.1c-54.8-7.1-83.9,6-81,13.3
		c2.9,7.3,7.8,18.3,9,24.5c0,0.1,0,0.1,0,0.2c0.9,4.4,6.2,6.2,9.6,3.3c10.6-9,33.9-23.8,72.1-23L482.1,126.6z"/>
</g>
</svg>
