<?xml version="1.0" encoding="utf-8"?>
<!-- Generator: Adobe Illustrator 22.0.1, SVG Export Plug-In . SVG Version: 6.00 Build 0)  -->
<svg version="1.1" id="圖層_1" xmlns="http://www.w3.org/2000/svg" xmlns:xlink="http://www.w3.org/1999/xlink" x="0px" y="0px"
	 viewBox="0 0 264.1 79" style="enable-background:new 0 0 264.1 79;" xml:space="preserve">
<style type="text/css">
	.st0{fill:#F98592;}
	.st1{fill:none;stroke:#FFFFFF;stroke-width:6;stroke-miterlimit:10;}
</style>
<g>
	<g>
		<g>
			<path class="st0" d="M101.7,39c-2.1-1.4-3.9-2.4-5.3-3l1.1-2.2c1.6,0.7,3.4,1.7,5.4,3.1L101.7,39z M96.5,52.4
				c2.4-1.2,3.9-2.2,3.9-4.9v-3.8c0-0.2-0.1-0.3-0.3-0.3h-3.2v-2.4h5.3c0.4,0,0.6,0.2,0.6,0.6v6.6c0.2,0.5,0.5,0.9,0.8,1.5
				c1,1.6,3.1,2.2,5.7,2.2c4.3,0,9.9-0.1,13.1-0.3l-0.7,2.7L108.8,54c-3.5-0.2-5.8-1.4-7-3.7c-0.4,1.2-2.2,3.3-3.9,4.2L96.5,52.4z
				 M102.9,33.5c-2.1-1.4-3.8-2.3-5.3-2.8l1.1-2.2c1.6,0.6,3.4,1.6,5.4,2.9L102.9,33.5z M113.1,45.3c-2.3-2.7-3.7-5.6-4.3-8.7h-0.5
				c0,4.8-0.9,9-2.5,12.4l-2.3-0.9c2-4.3,2.4-7.4,2.5-12.7v-5.7c0-0.5,0.2-0.7,0.7-0.7h15.1v2.4h-13c-0.2,0-0.3,0.1-0.3,0.3v2.4
				h11.9l1.3,1.1c-0.9,3.6-2,6.2-3.2,7.9l-1.7,2.2c2,1.4,4,2.7,6.1,3.6l-1.6,2.1c-2.3-1.1-4.3-2.4-6.1-4c-2.3,2-4.4,3.3-6.3,4.1
				l-1.8-2.1c2.6-1,4.8-2.2,6.4-3.6L113.1,45.3z M111.2,36.5c0.3,2,1,3.7,2,5.2c0.5,0.8,1.1,1.4,1.7,2.1c3-3.2,4-6.6,4-6.9
				c0-0.3-0.3-0.5-0.6-0.4H111.2z"/>
			<path class="st0" d="M128.2,53.2v1.2h-2.4V30.2c0-0.5,0.3-0.8,0.8-0.8h22.5c0.6,0,0.8,0.3,0.8,0.8v24.2h-2.4v-1.2H128.2z
				 M128.2,50.8h19.4V32.1c0-0.2-0.1-0.3-0.3-0.3h-18.7c-0.3,0-0.3,0.1-0.3,0.3V50.8z M144.8,47.5c0,0.2-0.1,0.3-0.4,0.3h-12.8
				c-0.2,0-0.3-0.1-0.3-0.3V35.3c0-0.2,0.1-0.3,0.3-0.3h12.8c0.3,0,0.4,0.1,0.4,0.3V47.5z M142.3,37.4h-8.4c-0.1,0-0.1,0-0.1,0.1
				v7.7c0,0.1,0,0.1,0.1,0.1h8.4c0.1,0,0.1-0.1,0.1-0.1v-7.7L142.3,37.4z"/>
			<path class="st0" d="M156.3,40.6l-1.1,1.8l-2.3-1c2.8-4,4.6-8.3,5.2-12.9l2.4,0.4c-0.5,2.5-1.1,4.7-1.7,6.6v18.8h-2.4V40.6z
				 M168.2,51.1v-8.8h-8v-2.4h8v-7.5l-6.3,0.3l-0.3-2.4c3.1,0,11.6-0.5,15.9-1.4l0.4,2.4c-1.1,0.2-3.5,0.6-7.2,1v7.7h8.2v2.4h-8.2
				v8.8h7.8v2.4h-17.6v-2.4H168.2z"/>
			<path class="st0" d="M181.2,47.6c2-2,3.5-4.4,4.6-7h-4.2v-2.3h5.5c-1.4-1.4-2.8-2.6-3.9-3.5l1.6-1.6l2,1.8
				c2.5-1.6,3.5-3.1,3.5-3.3c0-0.1-0.1-0.2-0.4-0.2h-7.6v-2.2h9.7l1.2,1c-0.8,2-2.3,4.1-4.7,6.2l1.1,1.1l-0.8,0.7h3.3l1.5,1.1
				c-0.4,2.3-1.2,4.5-2.4,6.3l-2.2-0.8c1.7-2.2,2.1-3.6,2.1-4.1c0-0.1,0-0.1,0-0.2l-0.3-0.1h-2v11.2c0,0.8-0.3,2.7-3,2.7
				c-0.9,0-2-0.2-3.4-0.6l0.1-2.4c1.3,0.4,2.3,0.6,3,0.6c0.9,0,1.1-0.3,1.1-1v-6.8c-1,2-2.1,3.4-3.1,4.5L181.2,47.6z M190.6,52.5
				c6.2-2,6.8-6.1,7-7.2h-4.1V43h4.2v-1.5h2.4V43h6l0.5,0.1c0.3,0.3,0.3,0.4,0.4,0.6c0,5.2-0.3,8.3-0.8,9.2c-0.8,1.3-2,1.7-3.6,1.7
				c-1,0-2.2-0.2-3.5-0.5l-0.1-2.7c1.4,0.5,2.5,0.7,3.3,0.7c0.7,0,1.4-0.1,1.9-0.9l0.3-1c0.1-1.5,0.2-2.7,0.2-3.5
				c0-0.9,0-1.4-0.4-1.4H200c-0.2,1.6-1,3.3-2.2,5.3c-1.4,1.6-3.3,2.9-5.8,4L190.6,52.5z M193.7,39.6c1.9-0.5,3.5-1.1,4.8-1.8
				c-1-1-1.9-2.5-2.7-4.2c-0.7,1.2-1.5,2.2-2.4,3.1l-1.8-1.5c2.5-2.4,3-4.2,3.6-6.8l2.2,0.4l-0.2,1h10v2.3h-1.9
				c-0.9,2.3-2,4.2-3.4,5.7c1.6,1,3.5,1.8,5.7,2.2l-1.3,2c-2.2-0.6-4.3-1.5-6.1-2.8c-1.6,1-3.4,1.8-5.4,2.4L193.7,39.6z M197.6,32.2
				c0.5,1.2,1.1,2.9,2.7,4.3c1.2-1.2,2.1-2.7,2.8-4.3H197.6z"/>
			<path class="st0" d="M209.5,52.2c3.9-1.6,6.7-3.3,8.5-5c-1.3-1.6-3-3.4-5-5.4l-1.4,1.7l-2.1-1.2c1.4-1.6,2.7-3.4,3.9-5.4
				c0.6-1.4,1-3.2,1.1-5.2h-4.1v-2.4H225v2.4h-8l-0.4,3.2h7.3c0.5,0,0.7,0.2,0.7,0.7c0,2.5-0.3,4.8-0.9,6.7
				c-2.4,7.3-8.2,10.4-12.7,12.3L209.5,52.2z M216.8,42.3l2.7,2.9c1.9-3,2.4-5.2,2.4-7.8c0-0.1-0.1-0.2-0.3-0.2h-5.9l-1.4,2.6
				L216.8,42.3z M226.4,30.2h2.4v17.5h-2.4V30.2z M232.3,28.8h2.4v22.7c0,0.4,0,2.9-3.4,2.9c-1.1,0-2.5-0.2-4.2-0.7v-2.5
				c1.6,0.5,2.9,0.7,3.8,0.7c1.3,0,1.4-0.5,1.4-1.1V28.8z"/>
			<path class="st0" d="M252.8,41.7c0.2,1.9,0.9,3.6,2.1,5.2c2.2-1.4,4-2.8,5.2-4l1.8,1.6c-1.3,1.4-3.1,2.8-5.2,4.2
				c2.4,1.7,5,3.1,7.6,4.1l-1.7,2c-7.7-3.5-11.3-6.7-12.1-12.9h-1.3l-2,2.3l-0.2,0.2v7.1c2.1-0.4,3.8-0.9,5.2-1.5l0.9,2.3
				c-3.4,1.2-7.7,2.1-12.9,2.7l-0.8-2.5l5.1-0.6v-5.5c-1.8,1.2-3.6,2.2-5.3,3L238,47c3.1-1.1,5.9-2.9,8.2-5.3h-8v-2.3H250v-2.2h-9.6
				v-2.3h9.6v-2h-10.7v-2.3H250v-2h2.4v2H263v2.3h-10.6v2h9.5v2.3h-9.5v2.2h11.7v2.3H252.8z"/>
		</g>
	</g>
	<g>
		<circle class="st0" cx="39.3" cy="40" r="39.4"/>
		<g>
			<path class="st1" d="M31.1,22.9h11.2c0,0,19.5,0.6,19.5,19.5S43.8,60.4,43.8,60.4H25.5"/>
			<polyline class="st1" points="39.4,13.3 27.1,22.9 38.4,32 			"/>
		</g>
	</g>
</g>
</svg>
