<?xml version="1.0" encoding="utf-8"?>
<!-- Generator: Adobe Illustrator 22.0.1, SVG Export Plug-In . SVG Version: 6.00 Build 0)  -->
<svg version="1.1" id="圖層_1" xmlns="http://www.w3.org/2000/svg" xmlns:xlink="http://www.w3.org/1999/xlink" x="0px" y="0px"
	 viewBox="0 0 941.1 161" style="enable-background:new 0 0 941.1 161;" xml:space="preserve">
<style type="text/css">
	.st0{fill:#FFFFFF;}
	.st1{fill:#E94C5E;}
	.st2{fill:#E84556;}
	.st3{fill:#E95D65;}
</style>
<g>
	<g>
		<path class="st0" d="M873,127.6c0,0-1-33.8,21.1-48.2C916.2,64.8,942.6,68,942.6,68s-36.2-1.3-53.2-13.6C872.2,42,873.1,7,873.1,7
			s1.2,37.8-15.6,48.1c-20.5,12.6-53.7,13.3-53.7,13.3s29-1.8,51.3,12.7C877.5,95.6,873,127.6,873,127.6z"/>
		<path class="st0" d="M873,125.8c0,0-1-32.8,20.5-46.8c21.5-14.1,47.1-11,47.1-11s-35.2-1.2-51.7-13.2
			c-16.7-12.1-15.8-46.1-15.8-46.1s1.2,36.7-15.1,46.7c-19.9,12.2-52.1,13-52.1,13s28.2-1.8,49.8,12.3
			C877.4,94.7,873,125.8,873,125.8z"/>
		<path class="st0" d="M873,124c0,0-1-31.8,19.9-45.4c20.8-13.6,45.7-10.7,45.7-10.7s-34.1-1.2-50.1-12.8
			c-16.2-11.7-15.4-44.7-15.4-44.7s1.2,35.6-14.6,45.3c-19.3,11.9-50.6,12.6-50.6,12.6s27.3-1.7,48.3,11.9
			C877.3,93.9,873,124,873,124z"/>
		<path class="st0" d="M873.1,122.3c0,0-0.9-30.8,19.2-44c20.2-13.2,44.3-10.4,44.3-10.4s-33.1-1.1-48.6-12.4
			c-15.7-11.4-14.9-43.4-14.9-43.4S874.3,46.6,859,56c-18.7,11.5-49,12.2-49,12.2s26.5-1.7,46.9,11.6
			C877.2,93,873.1,122.3,873.1,122.3z"/>
		<path class="st0" d="M873.1,120.5c0,0-0.9-29.8,18.6-42.6c19.5-12.8,42.9-10,42.9-10s-32-1.1-47.1-12c-15.2-11-14.4-42-14.4-42
			s1.1,33.4-13.7,42.5c-18.1,11.1-47.5,11.8-47.5,11.8s25.6-1.6,45.4,11.2C877.1,92.2,873.1,120.5,873.1,120.5z"/>
		<path class="st0" d="M873.1,118.7c0,0-0.9-28.8,18-41.2c18.9-12.4,41.5-9.7,41.5-9.7s-31-1-45.5-11.6
			c-14.8-10.7-13.9-40.7-13.9-40.7s1.1,32.3-13.3,41.1c-17.5,10.8-46,11.4-46,11.4s24.8-1.6,43.9,10.8
			C876.9,91.3,873.1,118.7,873.1,118.7z"/>
		<path class="st0" d="M873.1,116.9c0,0-0.9-27.8,17.4-39.8c18.3-12,40.1-9.4,40.1-9.4s-29.9-1-44-11.2
			c-14.3-10.3-13.4-39.3-13.4-39.3s1.1,31.2-12.8,39.7C843.5,67.4,816,68,816,68s23.9-1.5,42.4,10.5
			C876.8,90.5,873.1,116.9,873.1,116.9z"/>
		<path class="st0" d="M873.2,115.2c0,0-0.9-26.8,16.8-38.4c17.6-11.6,38.8-9.1,38.8-9.1s-28.9-0.9-42.5-10.8
			c-13.8-10-13-37.9-13-37.9s1.1,30.1-12.3,38.4C844.5,67.4,818,67.9,818,67.9s23.1-1.5,40.9,10.1
			C876.7,89.6,873.2,115.2,873.2,115.2z"/>
		<path class="st0" d="M873.2,113.4c0,0-0.8-25.8,16.2-37c17-11.1,37.4-8.8,37.4-8.8s-27.9-0.9-41-10.4
			c-13.3-9.6-12.5-36.6-12.5-36.6s1.1,29-11.9,37C845.6,67.3,820,67.9,820,67.9s22.3-1.4,39.4,9.7
			C876.6,88.7,873.2,113.4,873.2,113.4z"/>
		<path class="st0" d="M873.2,111.6c0,0-0.8-24.9,15.5-35.6c16.4-10.7,36-8.5,36-8.5s-26.8-0.8-39.4-10c-12.8-9.3-12-35.2-12-35.2
			s1.1,27.9-11.4,35.6c-15.2,9.3-39.8,9.9-39.8,9.9s21.4-1.4,37.9,9.3C876.5,87.9,873.2,111.6,873.2,111.6z"/>
		<path class="st0" d="M873.2,109.8c0,0-0.8-23.9,14.9-34.2c15.7-10.3,34.6-8.2,34.6-8.2s-25.8-0.8-37.9-9.6
			c-12.3-8.9-11.5-33.8-11.5-33.8s1,26.8-11,34.2c-14.6,9-38.3,9.5-38.3,9.5s20.6-1.3,36.5,9C876.4,87,873.2,109.8,873.2,109.8z"/>
		<path class="st0" d="M873.3,108.1c0,0-0.8-22.9,14.3-32.8c15.1-9.9,33.2-7.9,33.2-7.9s-24.7-0.7-36.4-9.2
			c-11.8-8.5-11.1-32.5-11.1-32.5s1,25.7-10.5,32.8c-14,8.6-36.7,9.1-36.7,9.1s19.7-1.3,35,8.6C876.3,86.2,873.3,108.1,873.3,108.1z
			"/>
		<path class="st0" d="M873.3,106.3c0,0-0.7-21.9,13.7-31.4c14.4-9.5,31.8-7.5,31.8-7.5s-23.7-0.7-34.8-8.8
			c-11.3-8.2-10.6-31.1-10.6-31.1s1,24.6-10,31.4c-13.4,8.3-35.2,8.7-35.2,8.7s18.9-1.2,33.5,8.2
			C876.2,85.3,873.3,106.3,873.3,106.3z"/>
		<path class="st0" d="M873.3,104.5c0,0-0.7-20.9,13.1-30c13.8-9,30.4-7.2,30.4-7.2s-22.6-0.6-33.3-8.4
			c-10.8-7.8-10.1-29.7-10.1-29.7s1,23.5-9.6,30c-12.8,7.9-33.7,8.3-33.7,8.3s18-1.2,32,7.9C876.1,84.5,873.3,104.5,873.3,104.5z"/>
		<path class="st0" d="M873.3,102.7c0,0-0.7-19.9,12.5-28.6c13.2-8.6,29-6.9,29-6.9s-21.6-0.6-31.8-8c-10.3-7.5-9.6-28.4-9.6-28.4
			s1,22.4-9.1,28.7c-12.2,7.5-32.1,7.9-32.1,7.9s17.2-1.1,30.5,7.5C876,83.6,873.3,102.7,873.3,102.7z"/>
		<path class="st0" d="M873.3,101c0,0-0.7-18.9,11.8-27.1c12.5-8.2,27.6-6.6,27.6-6.6s-20.5-0.5-30.3-7.6c-9.9-7.1-9.1-27-9.1-27
			s1,21.3-8.6,27.3c-11.6,7.2-30.6,7.5-30.6,7.5s16.4-1.1,29,7.1C875.8,82.8,873.3,101,873.3,101z"/>
		<path class="st0" d="M873.4,99.2c0,0-0.7-17.9,11.2-25.7c11.9-7.8,26.2-6.3,26.2-6.3s-19.5-0.5-28.7-7.2
			c-9.4-6.8-8.7-25.7-8.7-25.7s1,20.2-8.2,25.9c-11.1,6.8-29.1,7.1-29.1,7.1s15.5-1,27.5,6.8C875.7,81.9,873.4,99.2,873.4,99.2z"/>
		<path class="st0" d="M873.4,97.4c0,0-0.6-17,10.6-24.3c11.2-7.4,24.8-6,24.8-6s-18.4-0.4-27.2-6.8c-8.9-6.4-8.2-24.3-8.2-24.3
			s0.9,19.1-7.7,24.5c-10.5,6.5-27.5,6.8-27.5,6.8s14.7-1,26,6.4C875.6,81.1,873.4,97.4,873.4,97.4z"/>
		<path class="st0" d="M873.4,95.6c0,0-0.6-16,10-22.9c10.6-7,23.4-5.7,23.4-5.7s-17.4-0.4-25.7-6.4c-8.4-6.1-7.7-22.9-7.7-22.9
			s0.9,18-7.3,23.1c-9.9,6.1-26,6.4-26,6.4s13.8-0.9,24.6,6C875.5,80.2,873.4,95.6,873.4,95.6z"/>
		<path class="st0" d="M873.4,93.9c0,0-0.6-15,9.4-21.5c10-6.5,22-5.4,22-5.4s-16.3-0.3-24.1-6c-7.9-5.7-7.2-21.6-7.2-21.6
			s0.9,16.9-6.8,21.7c-9.3,5.8-24.4,6-24.4,6s13-0.9,23.1,5.6C875.4,79.3,873.4,93.9,873.4,93.9z"/>
		<path class="st0" d="M873.5,92.1c0,0-0.6-14,8.8-20.1c9.3-6.1,20.6-5,20.6-5s-15.3-0.3-22.6-5.6c-7.4-5.4-6.8-20.2-6.8-20.2
			s0.9,15.8-6.3,20.3c-8.7,5.4-22.9,5.6-22.9,5.6s12.2-0.9,21.6,5.3C875.3,78.5,873.5,92.1,873.5,92.1z"/>
		<path class="st0" d="M873.5,90.3c0,0-0.5-13,8.1-18.7c8.7-5.7,19.2-4.7,19.2-4.7s-14.3-0.3-21.1-5.2c-6.9-5-6.3-18.8-6.3-18.8
			s0.9,14.7-5.9,19c-8.1,5-21.4,5.2-21.4,5.2s11.3-0.8,20.1,4.9C875.2,77.6,873.5,90.3,873.5,90.3z"/>
		<path class="st0" d="M873.5,88.5c0,0-0.5-12,7.5-17.3c8.1-5.3,17.9-4.4,17.9-4.4s-13.2-0.2-19.6-4.8c-6.4-4.6-5.8-17.5-5.8-17.5
			s0.9,13.7-5.4,17.6c-7.5,4.7-19.8,4.8-19.8,4.8s10.5-0.8,18.6,4.5C875.1,76.8,873.5,88.5,873.5,88.5z"/>
		<path class="st0" d="M873.5,86.8c0,0-0.5-11,6.9-15.9c7.4-4.9,16.5-4.1,16.5-4.1s-12.2-0.2-18-4.4c-5.9-4.3-5.3-16.1-5.3-16.1
			s0.9,12.6-5,16.2c-6.9,4.3-18.3,4.4-18.3,4.4s9.6-0.7,17.1,4.2C875,75.9,873.5,86.8,873.5,86.8z"/>
		<path class="st0" d="M873.6,85c0,0-0.5-10,6.3-14.5c6.8-4.4,15.1-3.8,15.1-3.8s-11.1-0.1-16.5-4c-5.5-3.9-4.8-14.8-4.8-14.8
			s0.8,11.5-4.5,14.8c-6.3,4-16.8,4.1-16.8,4.1s8.8-0.7,15.6,3.8C874.8,75.1,873.6,85,873.6,85z"/>
		<path class="st0" d="M873.6,83.2c0,0-0.5-9,5.7-13.1c6.1-4,13.7-3.5,13.7-3.5s-10.1-0.1-15-3.6c-5-3.6-4.4-13.4-4.4-13.4
			s0.8,10.4-4,13.4c-5.8,3.6-15.2,3.7-15.2,3.7s7.9-0.6,14.2,3.4C874.7,74.2,873.6,83.2,873.6,83.2z"/>
		<path class="st0" d="M873.6,81.4c0,0-0.4-8.1,5.1-11.7c5.5-3.6,12.3-3.2,12.3-3.2s-9,0-13.4-3.2c-4.5-3.2-3.9-12-3.9-12
			s0.8,9.3-3.6,12c-5.2,3.2-13.7,3.3-13.7,3.3s7.1-0.6,12.7,3C874.6,73.4,873.6,81.4,873.6,81.4z"/>
		<path class="st0" d="M873.6,79.7c0,0-0.4-7.1,4.5-10.3c4.9-3.2,10.9-2.9,10.9-2.9s-8,0-11.9-2.8c-4-2.9-3.4-10.7-3.4-10.7
			s0.8,8.2-3.1,10.6c-4.6,2.9-12.1,2.9-12.1,2.9s6.3-0.5,11.2,2.7C874.5,72.5,873.6,79.7,873.6,79.7z"/>
		<path class="st0" d="M873.7,77.9c0,0-0.4-6.1,3.8-8.9c4.2-2.8,9.5-2.5,9.5-2.5s-6.9,0.1-10.4-2.4c-3.5-2.5-2.9-9.3-2.9-9.3
			s0.8,7.1-2.6,9.3c-4,2.5-10.6,2.5-10.6,2.5s5.4-0.5,9.7,2.3C874.4,71.6,873.7,77.9,873.7,77.9z"/>
		<path class="st0" d="M873.7,76.1c0,0-0.4-5.1,3.2-7.4c3.6-2.4,8.1-2.2,8.1-2.2s-5.9,0.1-8.9-2c-3-2.2-2.4-7.9-2.4-7.9
			s0.8,6-2.2,7.9c-3.4,2.2-9.1,2.1-9.1,2.1s4.6-0.4,8.2,1.9C874.3,70.8,873.7,76.1,873.7,76.1z"/>
		<path class="st0" d="M873.7,74.3c0,0-0.3-4.1,2.6-6c3-1.9,6.7-1.9,6.7-1.9s-4.8,0.2-7.3-1.6c-2.5-1.8-2-6.6-2-6.6s0.8,4.9-1.7,6.5
			c-2.8,1.8-7.5,1.7-7.5,1.7s3.7-0.4,6.7,1.6C874.2,69.9,873.7,74.3,873.7,74.3z"/>
		<path class="st0" d="M873.7,72.6c0,0-0.3-3.1,2-4.6c2.3-1.5,5.3-1.6,5.3-1.6s-3.8,0.2-5.8-1.2c-2-1.4-1.5-5.2-1.5-5.2
			s0.7,3.8-1.3,5.1c-2.2,1.5-6,1.3-6,1.3s2.9-0.3,5.2,1.2C874.1,69.1,873.7,72.6,873.7,72.6z"/>
		<path class="st0" d="M873.8,70.8c0,0-0.3-2.1,1.4-3.2c1.7-1.1,3.9-1.3,3.9-1.3s-2.7,0.3-4.3-0.8c-1.5-1.1-1-3.8-1-3.8
			s0.7,2.7-0.8,3.7c-1.6,1.1-4.5,1-4.5,1s2.1-0.3,3.8,0.8C874,68.2,873.8,70.8,873.8,70.8z"/>
		<path class="st0" d="M873.8,69c0,0-0.3-1.1,0.8-1.8c1-0.7,2.5-1,2.5-1s-1.7,0.3-2.7-0.4c-1-0.7-0.5-2.5-0.5-2.5s0.7,1.6-0.3,2.3
			c-1.1,0.7-2.9,0.6-2.9,0.6s1.2-0.2,2.3,0.5C873.8,67.4,873.8,69,873.8,69z"/>
	</g>
</g>
<g>
	<g>
		<g>
			<polygon class="st1" points="181.9,72.5 125.4,72.5 125.4,163.8 232,157.8 			"/>
			<polygon class="st1" points="727,72.4 783.5,72.4 783.5,163.8 676.9,157.7 			"/>
		</g>
		<g>
			<polygon class="st2" points="182.8,134.6 232,134.6 232,157.7 			"/>
			<polygon class="st2" points="726.1,134.5 676.9,134.5 676.9,157.6 			"/>
		</g>
		<rect x="182.8" y="39.5" class="st3" width="543.4" height="95.1"/>
	</g>
	<g>
		<g>
			<g>
				<path class="st0" d="M333,68c-2.3,2.5-5.3,4.9-8.9,7.3c-3.8,2.3-5.8,3.7-6.1,4L314.4,68c3.6-1.6,6.3-3.2,8.2-4.9
					c1.7-1.7,2.7-2.6,2.8-2.6L333,68z M369.1,83.9h-34.2v-1.9c-1.1,1.3-2.1,2.4-3,3.5c-1.1,1.3-1.6,2-1.6,2.1v29.5h-10.8V98
					l-2.8,1.9l-2.1-12.2c4.1-3.4,7.3-6.6,9.6-9.4c2.3-2.7,3.6-4.1,3.8-4.2l7,5.6V61.9h34.2V83.9z M371.9,102.7h-5.2v8.9
					c-0.3,2.7-1.2,4.3-2.6,4.9c-1.6,0.5-2.4,0.7-2.6,0.7h-9.4l-2.8-5.2l-7.5,3.8c-0.6-1.6-1.6-3.5-3.1-5.9c-1.2-2.5-2-3.8-2.1-4
					l4.2-3.3h-8v-7.5h23v-1.9h-23v-8h38.9v8h-5.2v1.9h5.2V102.7z M357.8,70.8v-1.9h-11.7v1.9H357.8z M357.8,77.4V76h-11.7v1.4H357.8
					z M356,105v-2.3H347l2.3,4.2h4.7C355.3,106.9,356,106.3,356,105z"/>
				<path class="st0" d="M443.5,107.9l-3.3,9.4c-7.7-0.9-13.4-2.4-17.4-4.5c-4.1-1.9-6.1-2.9-6.1-3c-6.1,3.3-11.3,5.4-15.5,6.3
					c-4.2,0.8-6.4,1.2-6.6,1.2l-6.6-9.4c6.4-0.6,10.9-1.3,13.6-2.1l3.8-1.2h-17.4v-8.9h5.6l-5.6-3.8c1.1-2,1.7-3.7,1.9-4.9
					c0.3-1.3,0.5-2,0.5-2.1h-2.8v-7.5h11.7v-1.9h-10.3V63.8h8v3.8h2.3v-5.6h9.4v4.7c2.7-0.9,4.9-2,6.8-3.3c1.9-1.3,2.9-1.9,3.1-1.9
					l10.8,0.5l-1.9,1.4h13.1v6.6c-0.3,0.3-1.3,0.9-3,1.9c-1.9,1.1-2.9,1.7-3,1.9h4.2v3.8h4.2v8.4h-4.2v6.1l2.3-0.5l1.4,4.2h0.9v8.9
					H428c1.6,0.9,4.5,1.7,8.7,2.3C440.9,107.4,443.2,107.7,443.5,107.9z M417.2,85.8h-6.6v-6.1l-1.9-0.9v15.9h-9.4v-9.9H398
					c0,3.8-0.6,7.4-1.9,10.8h15v-4.2h4.2l-2.3-3.3L417.2,85.8z M413,74.6l-0.9-2.3l-1.4,0.9l-1.9-3.8v7L413,74.6z M420.5,71.7
					l-1.4-1.9l-1.9,0.5l1.4,1.9L420.5,71.7z M428,77.4V76c0-0.2-1.3,0-3.8,0.5c-2.3,0.5-4.5,0.8-6.6,0.9H428z M433.2,95.7l-0.5-1.9
					h-6.6c0-0.9-0.6-1.6-1.9-1.9l-2.8,1.4v2.3H433.2z M427.5,69.4h-4.7l0.9,1.4L427.5,69.4z M428,85.8h-4.2l1.4,2.3h1.4
					C427.8,88.2,428.3,87.4,428,85.8z"/>
				<path class="st0" d="M516,117.7h-11.7v-1.9h-19.7v1.9h-12.2v-14.1c-2.2,0.6-4.1,1.2-5.6,1.6c-1.6,0.3-2.3,0.5-2.3,0.7l-5.2-10.8
					c4.7-1.6,8.8-3,12.2-4.2c3.3-1.3,5-1.9,5.2-1.9l-5.2-6.1c-1.4,0.9-2.8,1.8-4.2,2.6c-1.6,0.6-2.3,1-2.3,1.2l-5.6-10.3
					c6.1-2.5,10.9-5.5,14.5-9.1c3.6-3.6,5.5-5.5,5.6-5.9l13.6,0.9l-1.9,2.3h21.1v9.9c-3,3.6-5.9,6.7-8.9,9.4c-3,2.7-4.5,4.1-4.7,4.2
					H516V117.7z M495.8,75.5h-14.1l6.6,7C491.1,80.3,493.6,78,495.8,75.5z M504.3,104.6v-4.7h-19.7v4.7H504.3z"/>
				<path class="st0" d="M587.6,109.7h-22.5v7h-10.8v-7h-22.5v-9.4h22.5v-1.4h-17.4v-22h46.4v22h-18.3v1.4h22.5V109.7z M559,75.5
					h-25.3V60.9H559V75.5z M549.1,69.4V68h-4.2v1.4H549.1z M554.3,85.8v-1.9h-6.6v1.9H554.3z M554.3,92.8V91h-6.6v1.9H554.3z
					 M586.6,75.5h-25.8V60.9h25.8V75.5z M571.6,85.8v-1.9h-6.6v1.9H571.6z M571.6,92.8V91h-6.6v1.9H571.6z M575.8,69.4V68h-5.2v1.4
					H575.8z"/>
			</g>
		</g>
	</g>
</g>
</svg>
